<?xml version="1.0" standalone="no"?><!DOCTYPE svg PUBLIC "-//W3C//DTD SVG 1.1//EN" "http://www.w3.org/Graphics/SVG/1.1/DTD/svg11.dtd"><svg t="1657545913316" class="icon" viewBox="0 0 1024 1024" version="1.1" xmlns="http://www.w3.org/2000/svg" p-id="2348" width="32" height="32" xmlns:xlink="http://www.w3.org/1999/xlink"><defs><style type="text/css">@font-face { font-family: feedback-iconfont; src: url("//at.alicdn.com/t/font_1031158_u69w8yhxdu.woff2?t=1630033759944") format("woff2"), url("//at.alicdn.com/t/font_1031158_u69w8yhxdu.woff?t=1630033759944") format("woff"), url("//at.alicdn.com/t/font_1031158_u69w8yhxdu.ttf?t=1630033759944") format("truetype"); }
</style></defs><path d="M96.06464 800h832v64a96 96 0 0 1-96 96H192.06464a96 96 0 0 1-96-96v-64zM512.06464 64a96 96 0 0 1 85.888 138.976L776.06464 358.4l66.56-26.592a96 96 0 1 1 134.912 38.496L928.06464 704H96.06464L41.37664 334.912a96 96 0 1 1 126.72-15.488L280.06464 358.4l149.792-148.8A96 96 0 0 1 512.06464 64z" p-id="2349" fill="#d81e06"></path></svg>