<?xml version="1.0" standalone="no"?><!DOCTYPE svg PUBLIC "-//W3C//DTD SVG 1.1//EN" "http://www.w3.org/Graphics/SVG/1.1/DTD/svg11.dtd"><svg t="1646290747673" class="icon" viewBox="0 0 1024 1024" version="1.1" xmlns="http://www.w3.org/2000/svg" p-id="2245" xmlns:xlink="http://www.w3.org/1999/xlink" width="32" height="32"><defs><style type="text/css"></style></defs><path d="M204.58281 67.475763 59.679642 340.902195 59.679642 67.475787 204.582845 67.475787 204.58281 67.475763zM115.347866 426.045338 234.876006 67.475763l150.635972 0L115.347866 426.045338zM211.135386 535.742771 425.626214 67.475763l207.128938 0L211.135386 535.742771zM211.135386 711.751373 686.789018 67.475763l286.537728-3.273523L211.135386 711.751373zM820.231782 956.525261l144.088576-274.246042 0 274.246061L820.231741 956.52528 820.231782 956.525261zM908.647014 597.141094 789.123994 956.525261 638.482885 956.525261 908.647014 597.141094zM812.864614 487.443763 597.548954 956.525261 390.425098 956.525261 812.864614 487.443763zM812.864614 311.435059 337.210982 956.525261l-286.537728 3.273523L812.864614 311.435059zM812.864614 311.435059" p-id="2246" fill="#044493"></path></svg>