<svg xmlns="http://www.w3.org/2000/svg" width="50" height="42" viewBox="0 0 49 42"><defs><clipPath id="o"><path d="m1.64 36.18.067-.051.113-.024.196.016.187.05.242.102.297.16.281.188.32.25.356.324.246.266.215.27.188.277.242.43.18.382.14.364.086.254.07.25-.37.199-.18-.196-.454-.504-.62-.69-.669-.77-.597-.72-.25-.323-.168-.23-.094-.161-.027-.078Zm0 0"/></clipPath><clipPath id="a"><path d="M4 32h4v8H4Zm0 0"/></clipPath><clipPath id="c"><path d="M4 32h4v8H4Zm0 0"/></clipPath><clipPath id="d"><path d="m4.281 32.64.043.012.512.555.445.523.38.497.347.515.297.508.242.504.203.523.164.543.121.567.102.718.05.532.012.468-.011.301-.028.242-.015.09-.211-.02h.003l.032-.25.02-.238.007-.324-.008-.34-.043-.351-.101-.45-.16-.472-.2-.465-.234-.453-.262-.43-.277-.386-.297-.352-.281-.273"/></clipPath><clipPath id="e"><path d="M7 35h5v5H7Zm0 0"/></clipPath><clipPath id="f"><path d="m11.516 36.785-.336.246-.387.235-.832.437-.418.227-.387.242-.242.176-.21.187-.18.195-.153.215-.101.188-.079.183-.046.13-.032.12-.441-.043.062-.5.11-.472.148-.45.192-.425.238-.406.273-.38.309-.363.355-.343.399-.332.445-.317.313-.172.261-.101.223-.04h.223l.183.048.149.082.129.113.097.137.067.16.03.172v.175l-.034.184-.07.176-.106.16Zm0 0"/></clipPath><clipPath id="g"><path d="M7 35h5v5H7Zm0 0"/></clipPath><clipPath id="h"><path d="m11.852 35.77.03.171-.003.176-.04.18-.07.176-.105.16-.148.152-.336.246-.387.235-.832.437-.418.227-.387.242-.242.176-.21.187-.18.195-.09.137-.106.211-.207.504h-.027l-.29-.016.31-.777.167-.375.164-.328.172-.297.153-.21"/></clipPath><clipPath id="i"><path d="M2 34h4v6H2Zm0 0"/></clipPath><clipPath id="j"><path d="m2.793 34.297.129-.043.172-.024.23.004.223.032.25.062.277.102.262.129.262.171.265.215.227.25.172.246.12.246.087.262.047.246.015.239-.02.347-.058.29-.02.187.016.297.047.324.074.363.176.707.156.555.07.223h-.421l-.063-.164-.152-.407-.188-.492-.164-.437-.097-.192-.184-.265-.223-.274-.273-.312-.582-.63-.55-.597-.204-.258-.148-.238-.094-.223-.063-.234-.023-.195.016-.168.054-.153.075-.113Zm0 0"/></clipPath><clipPath id="k"><path d="M2 34h4v5H2Zm0 0"/></clipPath><clipPath id="l"><path d="m3.23 34.234.418.79.387.777.348.676.23.484.262.613.246.614.18.464.07.188-.219-.168-.168-.445-.097-.192-.184-.265-.223-.274-.273-.312-.582-.63-.55-.597-.204-.258-.148-.238-.094-.223-.063-.234-.023-.195.016-.168.054-.153.075-.113.105-.078"/></clipPath><clipPath id="m"><path d="M1.633 36.102h3.433v3.785H1.633Zm0 0"/></clipPath><clipPath id="n"><path d="M1 36h5v4H1Zm0 0"/></clipPath><clipPath id="b"><path d="m4.46 32.59.235-.02.254.035.278.09.191.102.203.14.211.196.227.25.191.258.2.32.202.39.215.481.168.488.13.532.089.546.062.547.032.547.015.508-.02.895-.038.62-.024.235-.347-.031.02-.133.03-.356.012-.48-.016-.266-.035-.27-.101-.448-.16-.473-.2-.465-.234-.453-.262-.43-.277-.386-.297-.352-.281-.273"/></clipPath><clipPath id="p"><path d="M19 8h1v2h-1Zm0 0"/></clipPath><clipPath id="q"><path d="m19.137 8.91 2.586.445.804-1.207-2.59-.449"/></clipPath><clipPath id="r"><path d="M21 8h2v2h-2Zm0 0"/></clipPath><clipPath id="s"><path d="m19.137 8.91 2.586.445.804-1.207-2.59-.449"/></clipPath><clipPath id="t"><path d="M20 8h2v1h-2Zm0 0"/></clipPath><clipPath id="u"><path d="m19.137 8.91 2.586.445.804-1.207-2.59-.449Zm0 0"/></clipPath><clipPath id="v"><path d="M19 8h3v2h-3Zm0 0"/></clipPath><clipPath id="w"><path d="m19.137 8.91 2.586.445.804-1.207-2.59-.449Zm0 0"/></clipPath><clipPath id="x"><path d="M17 3h3v2h-3Zm0 0"/></clipPath><clipPath id="y"><path d="m18.59 3.336.676.16-.04.129-.097.32-.121.395-.11.367-.062.227-.008.05-.863-.421.066-.055.13-.246.187-.395.172-.367Zm0 0"/></clipPath><clipPath id="z"><path d="M21 29h2v4h-2Zm0 0"/></clipPath><clipPath id="A"><path d="m21.418 29.969.645.195v.215l-.012.52-.035.652-.04.523-.035.227-.058.156-.059.074-.074.04-.105.003-.086-.031-.07-.055-.055-.09-.055-.164-.035-.242-.016-.265v-.329l.024-.539.039-.496Zm0 0"/></clipPath><clipPath id="B"><path d="M2 39h45.348v1H2Zm0 0"/></clipPath></defs><path style="stroke:none;fill-rule:evenodd;fill:#63bea7;fill-opacity:1" d="m27.578 36.102.113.218.063.235.012.238-.036.234-.054.149-.074.14-.098.137-.215.27-.172.277-.09.2-.054.195-.02.199v1.008h14.7v-1.008l-.016-.305-.047-.293-.074-.273-.102-.27-.18-.336-.218-.3-.254-.27-.121-.129-.098-.14-.07-.153-.051-.16-.027-.164-.004-.172.02-.168.042-.164.07-.164.11-.242.078-.25.05-.27.016-.281-.02-.309-.058-.293-.094-.273-.132-.262-.157-.238-.187-.215-.211-.188-.234-.16-.258-.129-.137-.082-.105-.105-.075-.129-.043-.145-.004-.148.036-.16.062-.2.035-.21.016-.223-.023-.277-.055-.254-.094-.242-.125-.227-.152-.2-.18-.179-.203-.152-.223-.121-.242-.086-.121-.051-.102-.078-.082-.098-.058-.117-.09-.21-.11-.196-.128-.18-.149-.168-.16-.148-.184-.13-.128-.116-.09-.141-.043-.164v-.176l.015-.152-.004-.164-.03-.223-.067-.207-.098-.191-.125-.176-.144-.149-.172-.128-.188-.102-.199-.066-.219-.04-.18-.003-.128-.02-.11-.062-.074-.098-.039-.129v-.012l-.035-.175-.059-.16-.078-.15-.101-.132-.121-.117-.137-.098-.149-.078-.16-.05-.172-.028-.18.004-.167.027-.157.055-.144.078-.133.098-.117.117-.098.133-.078.144-.055.16-.05.133-.075.117-.097.098-.114.074-.175.102-.192.156-.117.121-.105.153-.098.19-.066.204-.043.25-.012.305.015.183.032.176.02.121-.012.11-.032.109-.054.098-.075.086-.093.066-.196.121-.164.133-.14.144-.11.164-.082.2-.054.242-.004.121.007.145-.003.113-.028.097-.05.09-.067.075-.086.058-.101.035-.258.082-.239.117-.218.149-.196.183-.164.208-.136.234-.102.25-.059.266-.023.289.008.195.031.183.02.223-.02.211-.066.207-.102.188-.137.16-.175.136-.22.157-.194.18-.18.199-.156.218-.13.235-.105.254-.078.261-.047.274-.02.293.016.246.032.238.058.23.125.329.168.3"/><path style="stroke:none;fill-rule:evenodd;fill:#41b093;fill-opacity:1" d="m31.082 36.363.11.211.058.219.012.23-.035.223-.082.211-.133.191-.203.258-.164.266-.086.187-.051.188-.02.191v.957h13.996v-.957l-.027-.386-.074-.36-.125-.34-.172-.32-.207-.289-.246-.258-.113-.12-.09-.134-.07-.144-.063-.235-.016-.238.02-.16.043-.156.066-.157.102-.23.074-.238.047-.254.02-.27-.02-.297-.059-.277-.09-.262-.12-.246-.153-.226-.176-.207-.203-.18-.223-.149-.246-.125-.133-.078-.097-.101-.07-.121-.04-.137-.007-.145.035-.148.058-.191.036-.204.011-.21-.02-.262-.05-.242-.09-.23-.117-.216-.149-.191-.171-.172-.192-.145-.215-.113-.23-.086-.113-.047-.098-.074-.078-.094-.055-.109-.086-.2-.101-.187-.125-.175-.215-.23-.254-.192-.121-.11-.086-.136-.043-.157v-.164l.016-.148v-.152l-.036-.215-.062-.196-.09-.183-.121-.164-.137-.145-.164-.125-.18-.094-.191-.066-.207-.035-.172-.004-.121-.02-.102-.058-.074-.094-.035-.121-.004-.012-.031-.164-.055-.156-.074-.14-.098-.13-.113-.109-.129-.094-.144-.074-.153-.047-.164-.027-.172.004-.156.027-.148.05-.207.122-.172.156-.094.13-.07.136-.055.156-.047.125-.074.11-.09.093-.11.07-.167.098-.18.145-.113.117-.102.148-.09.184-.066.191-.04.239-.01.289.015.175.031.168.012.165-.035.156-.055.093-.07.083-.09.066-.184.113-.16.125-.129.137-.105.156-.082.192-.047.23-.008.113.008.141-.012.152-.062.133-.067.074-.078.051-.098.035-.25.078-.226.11-.207.144-.184.176-.16.195-.129.223-.094.238-.058.254-.024.274.012.183.027.18.02.21-.02.204-.062.191-.098.18-.129.156-.168.13-.207.148-.187.172-.168.187-.149.211-.125.223-.101.238-.074.25-.047.266-.016.273.027.352.075.328.117.316.16.285"/><path style="stroke:none;fill-rule:evenodd;fill:#5cbba2;fill-opacity:1" d="m23.246 33.535-.02-.37-.058-.356-.09-.336-.125-.325-.156-.304-.184-.278-.21-.257-.235-.23-.254-.2-.14-.11-.122-.128-.105-.145-.121-.242-.078-.262-.024-.183v-.184l.024-.191.035-.239.012-.25-.028-.37-.074-.345-.117-.32-.16-.3-.196-.266-.23-.235-.258-.195-.281-.148-.305-.102-.121-.047-.098-.074-.082-.098-.058-.113-.032-.129-.003-.14.007-.192-.007-.156-.063-.309-.098-.258-.128-.21-.165-.188-.195-.168-.226-.152-.114-.09-.09-.106-.062-.129-.04-.136-.01-.145.019-.152.039-.227.02-.234-.016-.395-.051-.32-.078-.258-.117-.25-.125-.199-.137-.156-.227-.195-.203-.13-.137-.097-.113-.125-.09-.152-.058-.168-.067-.207-.09-.188-.117-.172-.136-.148-.157-.125-.172-.102-.187-.07-.195-.035-.211-.004-.203.035-.188.066-.18.098-.16.125-.14.148-.121.176-.094.188-.07.207-.04.226V21l-.023.117-.047.094-.066.082-.082.059-.09.035-.106.011h-.21l-.258.051-.239.086-.222.133-.2.164-.175.191-.145.227-.117.246-.074.266-.043.289v.207l.015.199.008.148-.015.145-.043.14-.067.126-.086.113-.105.09-.211.168-.195.191-.176.215-.153.234-.125.25-.105.27-.07.152-.098.125-.121.098-.14.062-.286.118-.262.152-.242.195-.215.23-.18.259-.148.292-.11.31-.066.327-.023.356.016.285.043.273.074.258.043.2-.008.195-.047.183-.09.168-.125.137-.16.101-.305.168-.273.204-.254.246-.223.273-.183.305-.153.336-.113.355-.07.371-.024.399.02.36.059.343.093.328.125.309.082.21.055.211.023.215-.003.219-.032.215-.062.207-.086.195-.113.18-.141.164-.23.254-.208.281-.18.305-.152.328-.12.34-.09.36-.055.37-.02.395v1.293h17.36v-1.293l-.028-.258-.062-.254-.106-.25-.207-.36-.25-.347-.113-.172-.09-.18-.062-.195-.035-.2-.008-.202.015-.203.043-.203.067-.192.093-.187.141-.254.113-.27.094-.289.067-.293.042-.305.016-.32"/><path style="stroke:none;fill-rule:evenodd;fill:#41b093;fill-opacity:1" d="m24.855 34.094-.02-.332-.05-.317-.082-.304-.113-.29-.137-.269-.164-.25-.187-.23-.211-.204-.227-.18-.184-.155-.144-.188-.11-.215-.07-.234-.023-.246.023-.254.032-.215.011-.223-.023-.332-.067-.304-.105-.29-.145-.269-.175-.238-.204-.207-.23-.172-.254-.133-.273-.094-.106-.043-.09-.066-.07-.086-.055-.106-.027-.113-.004-.125.008-.168-.004-.14-.059-.278-.086-.23-.117-.188-.144-.168-.176-.152-.203-.137-.102-.078-.078-.094-.058-.113-.036-.125-.007-.129.015-.137.035-.203.016-.21-.012-.352-.047-.285-.07-.235-.101-.218-.114-.18-.12-.137-.204-.18-.184-.113-.12-.086-.102-.113-.078-.133-.055-.152-.059-.188-.082-.168-.105-.152-.121-.133-.14-.113-.153-.086-.168-.063-.176-.035-.187-.004-.18.032-.172.058-.156.09-.145.11-.125.132-.11.157-.085.171-.059.184-.035.203v.016l-.043.144-.082.114-.07.054-.086.031-.09.008-.191.004-.23.043-.212.078-.199.117-.18.149-.156.172-.133.203-.101.219-.067.238-.039.254v.187l.016.176.004.203-.051.188-.059.113-.074.098-.097.082-.192.152-.172.168-.156.191-.137.211-.113.223-.094.246-.062.133-.086.113-.11.086-.125.059-.257.101-.235.137-.215.176-.187.203-.164.234-.133.258-.098.277-.058.297-.024.317.016.254.039.242.066.23.036.18-.004.172-.043.168-.082.148-.11.125-.144.09-.27.149-.246.183-.226.219-.2.246-.164.273-.136.301-.102.313-.062.336-.024.355.02.324.054.309.082.293.114.273.074.188.047.187.02.196-.005.195-.027.187-.055.188-.078.176-.097.16-.13.144-.206.23-.184.25-.16.27-.137.297-.11.305-.077.316-.051.336-.02.352v1.16h15.524v-1.16l-.02-.23-.058-.227-.094-.223-.184-.32-.226-.313-.102-.152-.078-.164-.055-.172-.035-.18-.008-.18.016-.183.04-.18.058-.171.086-.168.12-.227.106-.242.082-.258.063-.262.035-.273.015-.285"/><path style="stroke:none;fill-rule:evenodd;fill:#fbf9e2;fill-opacity:1" d="M30.434 17.043h-11.68l-.543.023-.523.067-.504.105-.493.145-.48.183-.457.22-.434.253-.418.285-.394.32-.363.344-.34.371-.313.403-.281.422-.246.445-.215.465-.184.488-.14.5-.106.516-.062.53-.024.552v15.879h24.72v-15.88l-.024-.55-.067-.531-.101-.516-.14-.5-.184-.488-.215-.465-.246-.445-.282-.422-.312-.403-.34-.37-.367-.344-.39-.32-.419-.286-.433-.254-.461-.219-.477-.183-.492-.145-.508-.105-.52-.067-.542-.023"/><path style="stroke:none;fill-rule:evenodd;fill:#41b093;fill-opacity:1" d="m4.46 32.59-.19.055-.125.082-.086.101-.047.125-.02.149.02.171.078.266.14.297.18.293.219.289.246.273.258.243.281.273.297.352.277.386.262.43.234.453.2.465.16.473.101.449.035.27.016.265-.012.48-.03.356-.02.133.347.031.024-.234.039-.621.02-.895-.016-.508-.032-.547-.062-.547-.09-.546-.129-.532-.168-.488-.215-.48-.203-.391-.199-.32-.191-.258-.227-.25-.21-.196-.204-.14-.191-.102-.278-.09-.254-.035-.234.02"/><g clip-path="url(#a)"><g clip-path="url(#b)"><path style="stroke:none;fill-rule:evenodd;fill:#41b093;fill-opacity:1" d="m4.46 32.59-.19.055-.125.082-.086.101-.047.125-.02.149.02.171.078.266.14.297.18.293.219.289.246.273.258.243.281.273.297.352.277.386.262.43.234.453.2.465.16.473.101.449.035.27.016.265-.012.48-.03.356-.02.133.347.031.024-.234.039-.621.02-.895-.016-.508-.032-.547-.062-.547-.09-.546-.129-.532-.168-.488-.215-.48-.203-.391-.199-.32-.191-.258-.227-.25-.21-.196-.204-.14-.191-.102-.278-.09-.254-.035-.234.02"/></g></g><path style="stroke:none;fill-rule:evenodd;fill:#41b093;fill-opacity:1" d="m5.133 34.934-.301-.286-.277-.324-.242-.347-.18-.332-.09-.235-.043-.2-.004-.175.027-.129.051-.101.086-.09.121-.074.043.011.512.555.445.523.38.497.347.515.297.508.242.504.203.523.164.543.121.567.102.718.047.532.015.468-.011.301-.028.242-.015.09-.211-.02.02-.132.03-.356.012-.48-.016-.266-.035-.27-.101-.448-.16-.473-.2-.465-.234-.453-.262-.43-.277-.386-.297-.352-.281-.273"/><g clip-path="url(#c)"><g clip-path="url(#d)"><path style="stroke:none;fill-rule:evenodd;fill:#3ca086;fill-opacity:1" d="m5.133 34.934-.301-.286-.277-.324-.242-.347-.18-.332-.09-.235-.043-.2-.004-.175.027-.129.051-.101.086-.09.121-.074.043.011.512.555.445.523.38.497.347.515.297.508.242.504.203.523.164.543.121.567.102.718.05.532.012.468-.011.301-.028.242-.015.09-.211-.02.02-.132.03-.356.012-.48-.016-.266-.035-.27-.101-.448-.16-.473-.2-.465-.234-.453-.262-.43-.277-.386-.297-.352-.281-.273"/></g></g><path style="stroke:none;fill-rule:evenodd;fill:#11b48a;fill-opacity:1" d="m7.672 39.523.062-.5.11-.472.148-.45.192-.425.238-.406.273-.38.309-.363.355-.343.399-.332.445-.317.313-.172.261-.101.223-.04h.223l.183.048.149.082.129.113.097.137.067.16.03.172v.175l-.034.184-.07.176-.106.16-.152.156-.336.246-.387.235-.832.437-.418.227-.387.242-.242.176-.21.187-.18.195-.153.215-.101.188-.079.183-.046.13-.032.12Zm0 0"/><path style="stroke:none;fill-rule:evenodd;fill:#3ca086;fill-opacity:1" d="m11.516 36.785-.336.246-.387.235-.832.437-.418.227-.387.242-.242.176-.21.187-.18.195-.153.215-.101.188-.079.183-.046.13-.032.12-.441-.043.062-.5.11-.472.148-.45.192-.425.238-.406.273-.38.309-.363.355-.343.399-.332.445-.317.313-.172.261-.101.223-.04h.223l.183.048.149.082.129.113.097.137.067.16.03.172v.175l-.034.184-.07.176-.106.16Zm0 0"/><g clip-path="url(#e)"><g clip-path="url(#f)"><path style="stroke:none;fill-rule:evenodd;fill:#3ca086;fill-opacity:1" d="m7.672 39.523.062-.5.11-.472.148-.45.192-.425.238-.406.273-.38.309-.363.355-.343.399-.332.445-.317.313-.172.261-.101.223-.04h.223l.183.048.149.082.129.113.097.137.067.16.03.172v.175l-.034.184-.07.176-.106.16-.152.156-.336.246-.387.235-.832.437-.418.227-.387.242-.242.176-.21.187-.18.195-.153.215-.101.188-.079.183-.046.13-.032.12Zm0 0"/></g></g><path style="stroke:none;fill-rule:evenodd;fill:#41b093;fill-opacity:1" d="m11.852 35.77-.598.226-.59.266-.57.3-.512.317-.32.234-.27.235-.222.23-.153.211-.172.297-.164.328-.168.375-.308.777.289.016h.027l.207-.504.106-.21.09-.138.18-.195.21-.187.242-.176.387-.242.418-.227.832-.437.387-.235.336-.246.148-.152.106-.16.07-.176.039-.18.004-.176-.031-.171"/><g clip-path="url(#g)"><g clip-path="url(#h)"><path style="stroke:none;fill-rule:evenodd;fill:#3ca086;fill-opacity:1" d="m11.852 35.77-.598.226-.59.266-.57.3-.512.317-.32.234-.27.235-.222.23-.153.211-.172.297-.164.328-.168.375-.308.777.289.016h.027l.207-.504.106-.21.09-.138.18-.195.21-.187.242-.176.387-.242.418-.227.832-.437.387-.235.336-.246.148-.152.106-.16.07-.176.039-.18.004-.176-.031-.171"/></g></g><path style="stroke:none;fill-rule:evenodd;fill:#41b093;fill-opacity:1" d="m5.973 39.727-.07-.223-.157-.555-.176-.707-.074-.363-.047-.324-.015-.297.02-.188.058-.289.02-.347-.016-.239-.047-.246-.086-.261-.121-.247-.172-.246-.227-.25-.265-.215-.262-.171-.262-.13-.277-.1-.25-.063-.223-.032-.23-.004-.172.024-.129.043-.106.078-.074.113-.054.153-.016.168.023.195.063.234.094.223.148.238.203.258.551.598.582.629.273.312.223.274.184.265.097.192.164.437.188.492.152.407.063.164Zm0 0"/><path style="stroke:none;fill-rule:evenodd;fill:#41b093;fill-opacity:1" d="m2.793 34.297.129-.043.172-.024.23.004.223.032.25.062.277.102.262.129.262.171.265.215.227.25.172.246.12.246.087.262.047.246.015.239-.02.347-.058.29-.02.187.016.297.047.324.074.363.176.707.156.555.07.223h-.421l-.063-.164-.152-.407-.188-.492-.164-.437-.097-.192-.184-.265-.223-.274-.273-.312-.582-.63-.55-.597-.204-.258-.148-.238-.094-.223-.063-.234-.023-.195.016-.168.054-.153.075-.113Zm0 0"/><g clip-path="url(#i)"><g clip-path="url(#j)"><path style="stroke:none;fill-rule:evenodd;fill:#41b093;fill-opacity:1" d="m5.973 39.727-.07-.223-.157-.555-.176-.707-.074-.363-.047-.324-.015-.297.02-.188.058-.289.02-.347-.016-.239-.047-.246-.086-.261-.121-.247-.172-.246-.227-.25-.265-.215-.262-.171-.262-.13-.277-.1-.25-.063-.223-.032-.23-.004-.172.024-.129.043-.106.078-.074.113-.054.153-.016.168.023.195.063.234.094.223.148.238.203.258.551.598.582.629.273.312.223.274.184.265.097.192.164.437.188.492.152.407.063.164Zm0 0"/></g></g><path style="stroke:none;fill-rule:evenodd;fill:#41b093;fill-opacity:1" d="m3.23 34.234.418.79.387.777.348.676.23.484.262.613.246.614.18.464.07.188-.219-.168-.168-.445-.097-.192-.184-.265-.223-.274-.273-.312-.582-.63-.55-.597-.204-.258-.148-.238-.094-.223-.063-.234-.023-.195.016-.168.054-.153.075-.113.105-.078.168-.047.27-.016"/><g clip-path="url(#k)"><g clip-path="url(#l)"><path style="stroke:none;fill-rule:evenodd;fill:#3ca086;fill-opacity:1" d="m3.23 34.234.418.79.387.777.348.676.23.484.262.613.246.614.18.464.07.188-.219-.168-.168-.445-.097-.192-.184-.265-.223-.274-.273-.312-.582-.63-.55-.597-.204-.258-.148-.238-.094-.223-.063-.234-.023-.195.016-.168.054-.153.075-.113.105-.078.168-.047.27-.016"/></g></g><g clip-path="url(#m)"><path style="stroke:none;fill-rule:evenodd;fill:#41b093;fill-opacity:1" d="m5.066 39.688-.07-.25-.086-.254-.14-.364-.18-.383-.242-.43-.188-.277-.215-.27-.246-.265-.355-.324-.32-.25-.282-.187-.297-.16-.242-.102-.187-.05-.196-.017-.113.024-.066.05-.004.036.027.078.094.16.168.23.25.325.597.719.668.77.622.69.453.504.18.196Zm0 0"/></g><g clip-path="url(#n)"><g clip-path="url(#o)"><path style="stroke:none;fill-rule:evenodd;fill:#41b093;fill-opacity:1" d="m5.066 39.688-.07-.25-.086-.254-.14-.364-.18-.383-.242-.43-.188-.277-.215-.27-.246-.265-.355-.324-.32-.25-.282-.187-.297-.16-.242-.102-.187-.05-.196-.017-.113.024-.066.05-.004.036.027.078.094.16.168.23.25.325.597.719.668.77.622.69.453.504.18.196Zm0 0"/></g></g><path style="stroke:none;fill-rule:evenodd;fill:#fcc14a;fill-opacity:1" d="m18.164 31.668-.023-.29-.075-.265-.113-.246-.156-.222-.184-.188-.218-.156-.243-.117-.257-.075-.286-.027-.214.008-.286.031-.293.047-.32.078-.312.106-.293.14-.04.043-.007.063.05.238-.007.066-.106.239-.066.254-.024.273.032.3.074.274.125.25.164.23.2.188.23.156.043.043.082.157.074.105.082.066.07.012.496-.09.274-.054.277-.07.266-.094.222-.11.016-.008v-.003l.215-.157.18-.187.148-.223.11-.242.07-.258.023-.285m5.988-15.25-.129.621-.152.566-.168.512-.195.504-.215.469-.223.437-.375.633-.406.602-.434.59-.457.593-.96 1.254-.301.453-.266.485-.223.5-.187.492-.16.492-.125.453-.102.434-.07.36-.09.53-.039.11-.082.105-.172.184-.207.16-.238.133-.254.105-.317.094-.386.086-.614.09-.82.082-.039-.008-.035-.02-.02-.035-.004-.047.036-.277-.016-.066-.05-.04-.212-.077-.187-.094-.164-.11-.137-.125-.023-.062-.004-.625.027-.59.059-.555.086-.52.168-.69.203-.641.238-.59.273-.574.293-.535.309-.493.492-.71.48-.625.903-1.122.328-.457.336-.53.3-.563.262-.59.145-.406.113-.395.082-.383.047-.387v-.355l-.043-.328-.066-.238-.094-.215-.129-.192-.16-.175-.184-.145-.226-.121-.277-.098-.34-.074-.336-.02-.285.024-.247.066-.23.106-.203.129-.172.152-.223.262-.168.273-.128.281-.086.235-.086.324-.012.031-.027.028-.133.086-.157.082-.273.14-.394.168-.438.149-.523.133-.368.062-.39.035-.426.008-.18-.027-.136-.063-.11-.098-.082-.12-.058-.157-.04-.195-.011-.035-.028-.032-.043-.027-.027-.039-.012-.043.036-.574.066-.524.098-.484.12-.445.16-.442.18-.406.204-.371.222-.34.012-.02.309-.714.172-.371.039-.043.644-.325.594-.246.578-.203.48-.136.442-.102.297-.059.277-.039.559-.062.543-.016.53.024.427.058.422.09.421.129.415.168.402.203.387.23.375.262.359.293.336.32.308.348.282.367.258.403.226.418.188.433.152.461.113.485.07.484.024.504-.023.527-.075.551"/><path style="stroke:none;fill-rule:evenodd;fill:#deac45;fill-opacity:1" d="m18.164 31.668-.023-.29-.075-.265-.113-.246-.156-.222-.184-.188-.218-.156-.243-.117-.257-.075-.286-.027-.214.008-.286.031-.293.047-.32.078-.312.106-.293.14-.04.043-.007.063.05.238-.007.066-.106.239-.066.254-.024.273.032.3.074.274.125.25.164.23.2.188.23.156.043.043.082.157.074.105.082.066.07.012.496-.09.274-.054.277-.07.266-.094.222-.11.016-.008v-.003l.215-.157.18-.187.148-.223.11-.242.07-.258.023-.285m5.988-15.25-.129.621-.152.566-.168.512-.195.504-.215.469-.223.437-.375.633-.406.602-.434.59-.457.593-.96 1.254-.301.453-.266.485-.223.5-.187.492-.16.492-.125.453-.102.434-.07.36-.09.53-.012.059-.027.05-.082.106-.172.184-.207.16-.238.133-.254.105-.317.094-.386.086-.614.09-.82.082-.039-.008-.035-.02-.02-.035-.004-.047.036-.277-.016-.066-.05-.04-.212-.077-.187-.094-.164-.11-.137-.125-.023-.062-.004-.625.027-.59.059-.555.086-.52.168-.69.203-.641.238-.59.273-.574.293-.535.309-.493.492-.71.48-.625.903-1.122.328-.457.336-.53.3-.563.262-.59.145-.406.113-.395.082-.383.047-.387v-.355l-.043-.328-.066-.238-.094-.215-.129-.192-.16-.175-.184-.145-.226-.121-.277-.098-.34-.074-.336-.02-.285.024-.247.066-.23.106-.203.129-.172.152-.223.262-.168.273-.128.281-.086.235-.086.324-.012.031-.027.028-.133.086-.157.082-.273.14-.394.168-.438.149-.523.133-.368.062-.39.035-.426.008-.18-.027-.136-.063-.11-.098-.082-.12-.058-.157-.04-.195-.011-.035-.028-.032-.043-.027-.027-.039-.012-.043.036-.574.066-.524.098-.484.12-.445.16-.442.18-.406.204-.371.222-.34.012-.02.309-.714.172-.371.039-.043.644-.325.594-.246.578-.203.48-.136.442-.102.297-.059.277-.039.559-.062.543-.016.53.024.427.058.422.09.421.129.415.168.402.203.387.23.375.262.359.293.336.32.308.348.282.367.258.403.226.418.188.433.152.461.113.485.07.484.024.504-.023.527-.075.551"/><path style="stroke:none;fill-rule:evenodd;fill:#fcc14a;fill-opacity:1" d="m15.668 30.281-.281.024-.262.074-.242.117-.219.156-.184.192-.156.222-.113.243-.07.265-.028.29.028.288.07.266.113.246.156.223.184.187.219.16.242.118.262.07.281.027.285-.027.262-.07.238-.118.223-.16.183-.187.153-.223.117-.246.07-.266.028-.289-.028-.289-.07-.265-.117-.243-.153-.222-.183-.192-.223-.156-.238-.117-.262-.074-.285-.024m2.309-20.254.425.059.422.09.418.133.418.168.402.195.387.23.375.266.36.293.332.32.312.344.281.375.258.398.227.415.187.437.149.46.117.481.07.489.024.504-.024.527-.074.55-.133.622-.148.566-.168.512-.2.504-.21.469-.227.437-.375.633-.402.601-.434.59-.457.594-.96 1.254-.227.332-.204.344-.183.36-.238.55-.192.539-.16.535-.121.469-.156.785-.059.422-.031.062-.2.149-.23.129-.265.11-.422.12-.457.078-.465.032-.457-.02-.301-.039-.274-.063-.25-.078-.238-.105-.195-.121-.156-.14-.024-.06-.008-.628.032-.59.058-.555.086-.52.168-.69.203-.641.239-.59.273-.574.293-.536.309-.492.492-.707.48-.629.899-1.12.332-.458.332-.531.304-.563.258-.59.149-.406.113-.394.082-.383.047-.387v-.355l-.043-.328-.067-.235-.093-.215-.13-.195-.163-.176-.184-.144-.223-.121-.28-.098-.337-.074-.336-.02-.285.024-.246.066-.234.106-.2.129-.175.152-.219.265-.168.274-.133.281-.082.23-.086.325-.011.031-.028.027-.187.118-.223.105-.254.094-.398.101-.43.07-.441.032-.438-.008-.426-.043-.379-.082-.242-.078-.203-.094-.168-.105-.027-.035-.012-.047.035-.582.07-.54.098-.488.13-.453.163-.449.188-.41.21-.375.231-.344.262-.328.277-.297.29-.27.308-.242.437-.289.457-.242.473-.199.484-.16.493-.117.496-.082.496-.047.488-.008.477.023"/><path style="stroke:none;fill-rule:evenodd;fill:#fff;fill-opacity:1" d="m18.25 27.875-.016-.004-.039-.027-.004-.043.051-.285.031-.235.012-.101.02-.04.047-.015.039.023.015.043-.011.106-.032.238-.054.293-.024.035-.035.012M23.71 15.156l-.046-.02-.023-.05-.059-.441-.09-.461-.097-.383-.075-.211-.152-.352-.203-.383-.324-.5-.016-.054.031-.047.055-.012.047.028.332.511.21.395.157.363.074.219.102.39.094.473.058.453-.02.055-.046.027h-.008M20.285 22.98l-.039-.011-.031-.047.008-.059.285-.414.336-.457.308-.398.188-.235.37-.492.333-.508.3-.52.044-.034.058.004.032.043-.004.058-.227.402L22 20.7l-.262.38-.285.374-.398.504-.399.535-.308.453-.028.024-.035.011"/><path style="stroke:none;fill-rule:evenodd;fill:#bce1e9;fill-opacity:1" d="m2.574 13.227-.125-.028-.097-.07-.067-.102-.027-.125.027-.125.067-.101.097-.07.125-.024h.028l.066-.129.105-.105.125-.067.153-.023.148.023.13.07.1.102.071.129h.04l.07.008.066.023.066-.09.082-.066.098-.047.113-.015.113.015.094.04.082.066.067.086.039.097.015.11-.015.113-.04.098-.066.085-.082.063-.094.043-.113.016ZM30.82 7.324l.188-.027.164-.07.14-.11.11-.144.066-.168.028-.188-.028-.191-.066-.164-.11-.145-.14-.11-.164-.07-.188-.027-.12.012-.114.031-.086-.223-.129-.199-.164-.16-.195-.125-.145-.059-.156-.035-.164-.015-.235.027-.214.074-.196.117-.164.157-.129.183-.09.211-.117-.058-.125-.035-.136-.012-.203.027-.176.074-.153.121-.117.153-.074.18-.027.207.027.203.074.18.117.156.153.117.175.078.204.027ZM11.75 9.965l.156-.016.149-.039.133-.066.12-.09.106-.106.086-.125.066-.136.04-.149.015-.164-.016-.16-.039-.148-.066-.137-.086-.125-.105-.106-.121-.09-.133-.062-.149-.043-.156-.015-.156.015-.145.04-.062-.192-.09-.176-.113-.16-.133-.14-.153-.122-.168-.098-.183-.074-.192-.047-.207-.015-.203.015-.187.043-.176.067-.164.093-.152.114-.133.136-.113.149-.09.168-.07.18-.15-.07-.155-.048-.176-.015-.172.015-.156.043-.145.07-.133.098-.113.114-.094.132-.066.149-.043.16-.016.176.016.176.043.156.066.152.094.133.113.113.133.094.145.07.156.047.172.016Zm0 0"/><path style="stroke:none;fill-rule:evenodd;fill:#fccd6c;fill-opacity:1" d="M21.055 5.027h3.101l.145.024.12.05.11.087.082.109.051.125.023.148v.23l-.023.15-.05.124-.083.11-.11.086-.12.054-.145.02h-.543l-1.039 1.082.168-1.082h-1.687l-.145-.02-.12-.054-.11-.086-.082-.11-.055-.125-.02-.148v-.23l.02-.15.055-.124.082-.11.11-.085.12-.051.145-.024"/><path style="stroke:none;fill-rule:evenodd;fill:#60b8cb;fill-opacity:1" d="M8.672 15.336H7.445l-.27.02-.253.05-.242.086-.227.117-.207.145-.191.168-.168.195-.14.211-.114.235-.086.246-.05.257-.02.274v.715l.027.328.07.3.117.282.16.262.192.234.227.2.25.163.277.125.3.082-.242 1.551 1.461-1.52h.356l.27-.019.253-.05.242-.087.227-.12.207-.141.191-.172.168-.192.141-.215.113-.23.086-.246.051-.258.02-.277v-.715l-.02-.274-.05-.257-.087-.247-.113-.234-.14-.21-.168-.196-.192-.168-.207-.145-.226-.117-.243-.086-.254-.05-.27-.02"/><path style="stroke:none;fill-rule:evenodd;fill:#fff;fill-opacity:1" d="m7.172 17.766-.02.105-.054.082-.082.055-.106.023-.101-.023-.082-.055-.055-.082-.02-.105.02-.106.055-.082.082-.058.101-.02.106.02.082.058.054.082.02.106M8.383 17.766l-.02.105-.054.082-.082.055-.102.023-.105-.023-.082-.055-.055-.082-.02-.105.02-.106.054-.082.083-.058.105-.02.102.02.082.058.054.082.02.106M9.598 17.766l-.02.105-.058.082-.082.055-.102.023-.102-.023-.082-.055-.058-.082-.02-.105.02-.106.058-.082.082-.058.102-.02.101.02.083.058.058.082.02.106"/><path style="stroke:none;fill-rule:evenodd;fill:#000;fill-opacity:.121569" d="m22.563 11.371-.297-.277-.313-.254-.324-.235-.34-.21-.344-.184-.36-.16-2.28-.39-.422.027-.43.05-.164.024-.457.082-.68.172.028.023.566-.05.54-.024.534.008.516.054.344.059.34.086.343.113.38.16.378.184.762.383.394.164.41.125.278.054.293.024.305-.008"/><path style="stroke:none;fill-rule:evenodd;fill:#080202;fill-opacity:1" d="m21.762 9.457-2.782-.48.817-1.227.05-.055.071-.043.078-.023h.074l2.434.422.062.023.032.043.004.051-.028.066Zm0 0"/><path style="stroke:none;fill-rule:evenodd;fill:#fff;fill-opacity:1" d="M21.719 9.355 19.14 8.91l.8-1.207 2.579.445Zm0 0"/><g clip-path="url(#p)"><g clip-path="url(#q)"><path style="stroke:none;fill-rule:evenodd;fill:#9ad5c6;fill-opacity:1" d="m19.824 8.8.02-.054-.016-.043-.008-.023.016-.032.012-.015.011-.055-.03-.031-.005-.024.008-.011.004-.032-.012-.02.004-.026.012-.016.015-.047-.011-.023-.008-.024v-.027l-.031-.016-.043.008-.035.027-.028.008h-.008l-.054.012-.047.035-.008.012-.031.023-.07.035-.028.012-.066.024-.047.043-.012.027-.015.02-.024.011-.074.027-.055.051-.015.047-.016.031-.035.028-.063.035-.043.043-.027.047.734.125.032-.043.003-.055.004-.027.032-.032.058-.054"/></g></g><g clip-path="url(#r)"><g clip-path="url(#s)"><path style="stroke:none;fill-rule:evenodd;fill:#9ad5c6;fill-opacity:1" d="m22.176 8.918.023-.059-.02-.046-.007-.024.015-.031.016-.02.012-.054-.031-.04-.004-.023.008-.012.003-.03-.015-.024.008-.028.011-.015.016-.051-.012-.027-.008-.02v-.031l-.035-.02-.043.008-.039.031-.027.008h-.012l-.058.012-.047.035-.008.016-.031.023-.078.043-.028.012-.07.02-.055.046-.012.031-.011.02-.028.012-.078.027-.058.055-.02.05-.012.036-.043.027-.09.055-.035.047-.003.054v.047l-.024.05-.058.095-.036.043.7.125.222-.293.004-.059.004-.031.035-.031.059-.059"/></g></g><g clip-path="url(#t)"><g clip-path="url(#u)"><path style="stroke:none;fill-rule:evenodd;fill:#035e80;fill-opacity:1" d="m21.504 8.371-1.137-.195.094-.145 1.14.196ZM21.281 8.707l-1.136-.195.093-.145 1.137.2Zm0 0"/></g></g><g clip-path="url(#v)"><g clip-path="url(#w)"><path style="stroke:none;fill-rule:evenodd;fill:#035e80;fill-opacity:1" d="m21.07 9.027-1.14-.195.097-.145 1.137.2Zm0 0"/></g></g><path style="stroke:none;fill-rule:evenodd;fill:#184657;fill-opacity:1" d="m15.984 8.32-.035.262v.293l.031.29.043.269.102.433.055.172.18-.043.199-.035.308-.043.344-.023h.441l.395.023.473.05.984.145.926.164.683.137.266.055.64.406.016-.133.008-.137-.008-.19-.027-.2-.063-.215-.062-.137-.086-.133-.11-.125-.128-.105-.164-.086-.207-.074-.868-.219-.855-.219-.649-.16-.261-.066-.012-.367Zm0 0"/><path style="stroke:none;fill-rule:evenodd;fill:#0b303e;fill-opacity:1" d="m21.188 9.34-.868-.219-.855-.219-.649-.16-.261-.066-.012-.367h-.211l.074.554.04.094.077.09.141.101.246.118.324.117.352.097.379.086.738.133.598.074.3.012.051-.02.02-.027.012-.039.039-.02.015-.023-.136-.125-.18-.105-.235-.086"/><path style="stroke:none;fill-rule:evenodd;fill:#ffd6cb;fill-opacity:1" d="m19.637 7.402-.02.27-.035.332-.035.285-.016.121.16.059.383.148.453.2.508.273.277.144.079.016.105.008h.2l.081.008.024.011-.004.02-.035.023-.09.035-.05.016.046.008.102.012h.082l.02.004v.035l-.024.043-.04.03.016.04v.027l-.027.028.004.047-.016.035-.043.027-.012.04-.023.023-.043.02-.27-.04-.527-.117-.648-.188-.332-.117-.305-.125-.285-.137-.207-.136-.121-.11-.067-.097-.027-.094-.031-.617v-.477l.004-.191Zm0 0"/><path style="stroke:none;fill-rule:evenodd;fill:#ce5e47;fill-opacity:1" d="m18.848 7.344-.008.234.12-.05.134-.032.187-.02.266.012.078.008V7.36Zm0 0"/><path style="stroke:none;fill-rule:evenodd;fill:#ffbaa8;fill-opacity:1" d="m19.742 3.586.035.219-.011.035-.032.008-.113-.035Zm0 0"/><path style="stroke:none;fill-rule:evenodd;fill:#ffd6cb;fill-opacity:1" d="m19.73 3.66-.093.184-.094.156-.11.129-.117.07-.082.016-.101-.016-.121-.054-.055-.067-.031-.133-.004-.156.023-.195.047-.196.067-.203.117-.332.054-.12.067-.06.05-.015.087.012.125.05.171.102.102.09.055.082.027.098v.097l-.027.11-.157.351"/><path style="stroke:none;fill-rule:evenodd;fill:#184657;fill-opacity:1" d="m19.828 3.45-.047-.016-.043-.02-.043-.016-.02-.007-.01-.004-.005-.004h-.008v-.004h-.004l-.003-.008.007-.008.012.008-.008-.008h.051l.047.016.043.023.039.032v.015Zm0 0"/><g clip-path="url(#x)"><g clip-path="url(#y)"><path style="stroke:none;fill-rule:evenodd;fill:#ffd6cb;fill-opacity:1" d="m18.828 4.984.008-.05.062-.227.11-.367.12-.395.099-.32.039-.129-.676-.16-.07.164-.172.367-.188.395-.129.246-.066.054Zm0 0"/></g></g><path style="stroke:none;fill-rule:evenodd;fill:#0d232b;fill-opacity:1" d="m19.723 3.559-.016.011-.023-.004-.012-.02.004-.019.015-.015.024.004.012.02-.004.023"/><path style="stroke:none;fill-rule:evenodd;fill:#184657;fill-opacity:1" d="m18.488 3.52.063-.137.113-.301.043-.117.059-.113.074-.106.086-.09.101-.066.114-.031.183-.004.168.027.149.063.125.09.062.074.04.074.046.133.004.035h-.023l-.07-.02-.075.012-.063.047-.05.11-.04.1-.046.06-.117.081-.047.04-.032.062-.066-.031.023-.063.055-.125.055-.113-.074.008-.102.07-.23.23-.098.06-.113.015-.117-.012-.098-.027-.102-.035"/><path style="stroke:none;fill-rule:evenodd;fill:#ffbaa8;fill-opacity:1" d="m19.172 3.758-.094-.074-.055-.098-.015-.113.027-.114.07-.097.098-.055.11-.016.113.028Zm0 0"/><path style="stroke:none;fill-rule:evenodd;fill:#ff977b;fill-opacity:1" d="m19.234 3.629-.05-.04-.032-.05-.007-.059.015-.062.04-.047.05-.031.059-.012.058.02Zm0 0"/><path style="stroke:none;fill-rule:evenodd;fill:#ed6d53;fill-opacity:1" d="m17.047 4.746.226-.117.165-.066.152-.043.137-.028.3-.054.11.027.258.074.308.117.149.074.117.075.148.133.188.195.175.222.153.25.078.184.047.176.015.176-.015.425-.035.422-.032.32-.015.126-.828-.09-.035.117-.079.289-.09.375-.058.383-.156.058-.184.047-.32.04-.375.011-.543-.031-.649-.09-.316-.078-.078-.035-.02-.016-.008-.02.004-.18.028-.46.066-.64.059-.352.074-.36.133-.472.133-.364.136-.28.172-.263.156-.171.149-.106"/><path style="stroke:none;fill-rule:evenodd;fill:#ce5e47;fill-opacity:1" d="m18.25 8.61.254-.067.082-.035.059-.383.09-.375.078-.29.035-.116.062-.442.05-.367.02-.152-.09.168-.214.469-.121.316-.125.39-.102.415-.078.468"/><path style="stroke:none;fill-rule:evenodd;fill:#ffd6cb;fill-opacity:1" d="m27.59 30.129-.125-.004h-.09l.09-.004.09-.008.039-.023.008-.04-.024-.019-.082-.008-.23-.007-.43-.032-.684-.105-.425-.094-.438-.129-.43-.152-.386-.164-.356-.184-.254-.172-.117-.101-.113-.098-.238-.07-.137-.04-.133-.019-.117.008-.074.04-.032.042-.007.07.023.114.066.136.118.153.18.168.195.144.238.145.281.14.438.184.488.152.723.176.597.117.547.086.375.032.14.007.286-.441"/><path style="stroke:none;fill-rule:evenodd;fill:#06171d;fill-opacity:.513725" d="m23.676 28.973.113.129.098.152.082.156.062.152.086.25.028.102-.118-.05-.242-.11-.215-.106-.039-.046-.008-.094.012-.106.031-.12.07-.216.04-.093"/><path style="stroke:none;fill-rule:evenodd;fill:#ffd6cb;fill-opacity:1" d="m23.012 29.438.304-.192.243-.125-.098-.172-.117-.156-.04-.04-.066-.034-.144-.059-.106-.031-.105-.004-.106.023-.078.012-.035-.015-.047-.036-.043-.07-.047-.14-.074-.337-.05-.316-.016-.14-.703.242.035.16.078.355.078.39.043.243-.012.145-.062.195-.145.258.172.09.156.128.133.16.102.169.082-.164.11-.137.128-.113.145-.106.285-.183"/><path style="stroke:none;fill-rule:evenodd;fill:#f1bdaf;fill-opacity:1" d="m22.168 28.23.164-.011.148-.04-.105-.386-.05-.172-.595.094.07.207.098.156.086.082.09.05.094.02"/><path style="stroke:none;fill-rule:evenodd;fill:#103442;fill-opacity:1" d="m18.453 29.227-.125-.09-.078-.102-.04-.117-.007-.117.027-.11.06-.097.108-.157.102-.148.191-.187.125-.094.098-.055.195-.058.235-.047.12-.043.087-.055.07-.066.063-.082.148-.204.137-.156.144-.11.164-.077.211-.051.246-.024.2-.02.105-.026.145-.059.132-.082.079-.078.136-.149.086-.054.14-.047.153-.008.164.04.156.077.149.102.133.125.105.129.078.14.032.121-.012.133-.043.121-.078.114-.157.144-.187.121-.195.098-.157.062-.16.055-.066.066-.219.243-.098.105-.085.07-.098.047-.106.032-.12.007-.169-.004-.242.012-.168.043-.14.078-.114.094-.12.082-.153.055-.164.02-.164-.016-.157-.016-.132.02-.13.05-.136.086-.145.082-.136.043-.133.008-.09-.02"/><path style="stroke:none;fill-rule:evenodd;fill:#07202a;fill-opacity:1" d="m22.621 26.867-1.219.715-.164.027-.117.012-.187.016-.075.027-.082.074-.254.262-.128.098-.125.054-.2.012-.226.004-.114.027-.109.059-.094.082-.074.086-.137.172-.074.07-.101.059-.192.058-.152.051-.07.05-.082.087-.075.136-.03.141h.089l.11-.023.109-.043.109-.067.137-.086.129-.05.132-.02.157.016.164.015.164-.02.152-.054.121-.082.114-.094.14-.078.168-.043.242-.012.168.004.121-.007.106-.032.098-.047.085-.07.098-.105.219-.243.066-.066.125-.039.282-.121.164-.09.156-.11.137-.132.09-.145Zm0 0"/><path style="stroke:none;fill-rule:evenodd;fill:#ffd6cb;fill-opacity:1" d="M21.906 27.512v.101l-.039.09-.07.07-.094.04h-.101l-.086-.04-.07-.07-.04-.098.004-.101.04-.09.066-.07.093-.04h.102l.09.04.066.07.04.098"/><path style="stroke:none;fill-rule:evenodd;fill:#f1bdaf;fill-opacity:1" d="M21.79 27.531v.055l-.024.05-.036.036-.046.02h-.055l-.047-.02-.035-.04-.02-.046v-.055l.02-.05.035-.036.05-.02h.055l.043.02.04.04.02.046"/><path style="stroke:none;fill-rule:evenodd;fill:#ffd6cb;fill-opacity:1" d="m22.594 27.375.02.184-.009.156-.035.137-.062.12-.098.083-.137.054h-.128l-.13-.043-.117-.078-.105-.117-.082-.144-.059-.168-.03-.18.003-.16.035-.137.07-.117.11-.09.164-.059.168-.02.117.009.082.03.094.087.058.125.07.328"/><path style="stroke:none;fill-rule:evenodd;fill:#020f13;fill-opacity:1" d="m21.836 27.254.066-.043.075-.023.074-.012.078.004.004.004-.004.003h-.004l-.145.024-.07.02-.066.03h-.008v-.007M22.535 27.09l-.05.004-.075.015-.07.036v.003l.004.004.074-.023.07-.012.055-.008-.008-.02"/><path style="stroke:none;fill-rule:evenodd;fill:#000;fill-opacity:1" d="m22.05 27.348-.003.027-.02.012-.027-.004-.016-.024.008-.023.02-.016.027.004.012.024M22.531 27.254l-.004.023-.023.016-.024-.004-.015-.023.004-.028.023-.011.028.003.011.024"/><path style="stroke:none;fill-rule:evenodd;fill:#07202a;fill-opacity:1" d="m22.29 27.063.081.054.11.067.081.03-.042-.183-.06-.12-.073-.099-.059-.05-.07-.043-.528.226-.335.578.027.141.121-.023.094-.043.074-.067.09-.125.07-.14.11-.282.062-.113.074-.062.043.101.047.07.082.082"/><path style="stroke:none;fill-rule:evenodd;fill:#f1bdaf;fill-opacity:1" d="m22.309 27.266.12.152.005.031-.02.02-.102.023Zm0 0"/><path style="stroke:none;fill-rule:evenodd;fill:#ed6d53;fill-opacity:1" d="m22.5 27.602-.004.035-.027.035-.043.027-.059.02-.058.004-.047-.012-.04-.02-.015-.03.004-.024.035-.012.106-.008.101-.031.031-.004.016.02"/><path style="stroke:none;fill-rule:evenodd;fill:#103442;fill-opacity:1" d="m22.73 26.805-.054-.086-.086-.09-.106-.078-.132-.051-.145-.02-.172.032-.137.058-.101.07-.078.079-.051.062-.04.067-.296.746.176-.04.12-.074.095-.101.066-.117.09-.235.043-.093.039-.047.09-.055.078-.035.078.113.078.043.09.016.078-.004h.074l.051.02.047.062.027.09.024.183.008.075.007.011.02-.015.035-.082.027-.102.016-.129-.012-.137-.047-.136"/><path style="stroke:none;fill-rule:evenodd;fill:#42966d;fill-opacity:1" d="m26.469 31.578-.043-.012-.028-.05.012-.055.313-.41.386-.477.848-.992.883-.98.789-.848.57-.602.227-.238.05-.02.051.02.02.05-.02.056-.226.234-.567.601-.785.844-.879.977-.847.988-.383.477-.313.41-.023.02-.035.007"/><path style="stroke:none;fill-rule:evenodd;fill:#1b4e61;fill-opacity:1" d="m29.758 37.348-.063.078.16.133.032-.106Zm0 0"/><path style="stroke:none;fill-rule:evenodd;fill:#ffd6cb;fill-opacity:1" d="m30.473 37.094-.008.027-.04.066-.046.047-.078.051-.098.04-.144.023-.145.015-.105.028-.098.039-.094.05-.351-.324-.496-.492-.563-.559-.555-.52-.265-.218-.215-.152-.813-.492-.75-.457-.363-.246-.371-.282.508-.754.156.114.398.285.524.37.539.376.45.297.265.191.32.281.317.313.324.348.601.68.453.538.215.235.117.043.11.02.187.007.114.012"/><path style="stroke:none;fill-rule:evenodd;fill:#f1bcad;fill-opacity:1" d="m25.488 33.043-.508.754.258.2.29.202.066-.195.066-.145.082-.129.094-.117.098-.101.09-.067-.399-.293-.137-.109"/><path style="stroke:none;fill-rule:evenodd;fill:#236780;fill-opacity:1" d="m30.477 37.145-.036.05-.062.067-.082.05-.106.04-.253.035-.125.023-.09.031.058.051.074.067-.054.035-.031.011-.153-.125.094-.05.098-.04.105-.027.145-.015.144-.024.098-.039.078-.05.047-.047.039-.067.008-.027.011.015-.007.036"/><path style="stroke:none;fill-rule:evenodd;fill:#184657;fill-opacity:1" d="m30.426 37.188.039-.067.008-.027-.098-.012-.168-.004-.05.09-.055.047-.063.027-.125.004-.144.04-.137.058-.102.074.086.062.094-.05.098-.04.105-.027.145-.015.144-.024.098-.039.078-.05.047-.047"/><path style="stroke:none;fill-rule:evenodd;fill:#1b4e61;fill-opacity:1" d="m30.672 36.402-.067.075.157.14.035-.101Zm0 0"/><path style="stroke:none;fill-rule:evenodd;fill:#ffd6cb;fill-opacity:1" d="m31.398 36.184-.011.03-.04.063-.046.043-.082.051-.102.031-.144.02-.145.008-.105.02-.102.03-.098.051-.386-.457-.555-.629-.32-.336-.336-.328-.356-.304-.343-.254-.446-.285-.418-.254-.816-.473-.817-.477.407-.87.172.116.433.301.574.39.59.403.489.324.312.223.293.246.277.266.387.418.332.406.54.719.214.273.125.13.105.058.11.031.191.008h.078l.04.008"/><path style="stroke:none;fill-rule:evenodd;fill:#236780;fill-opacity:1" d="m31.398 36.238-.035.051-.066.059-.082.047-.11.035-.257.02-.125.019-.094.027.058.055.075.066-.059.035-.031.012-.149-.133.098-.05.102-.032.105-.02.145-.007.144-.02.102-.03.082-.052.047-.043.039-.062.011-.031.012.02-.012.034"/><path style="stroke:none;fill-rule:evenodd;fill:#f1bcad;fill-opacity:1" d="m26.414 33.14.031-.187.035-.113.055-.133.063-.113.082-.098.168-.16-.442-.305-.172-.12-.406.874.586.356"/><path style="stroke:none;fill-rule:evenodd;fill:#184657;fill-opacity:1" d="m31.348 36.277.039-.062.011-.031-.078-.016-.133-.008-.062.098-.059.047-.07.023-.086-.012-.105.008-.2.055-.09.039-.066.047.074.066.098-.05.102-.032.105-.02.145-.007.144-.02.102-.03.082-.052.047-.043M22.7 30.941l.062.118.047.203.043.23.07.309.066.21.098.239.137.27.148.23.192.246.21.234.223.227.434.398.332.274.133.105.14-.12.399-.403.27-.305.35-.433.536-.696.242-.351.059-.094-.137-.133-.422-.355-.309-.227-.421-.285-.438-.254-.36-.18-.597-.25-.23-.093-.153-.082ZM22.79 28.64l.058.02.125.07.297.192.27.191.116.086.035-.406-.082-.023-.199-.06-.262-.085-.085-.02h-.083l-.136.02-.055.016"/><path style="stroke:none;fill-rule:evenodd;fill:#184657;fill-opacity:1" d="m23.477 29.008-.079-.059-.183-.129-.195-.125-.11-.062-.101.004-.086.015-.075-.02-.03-.023.003.016-.043.07-.144.137-.122.074-.117.043-.12.024-.087.004-.09-.004v.12l-.02.106-.038.106-.067.136.293.926.618.586.148-.074.527-.324.34-.239.168-.14.13-.133-.106-.273.023-.067.035-.16.004-.094-.015-.094-.067-.125-.09-.09-.11-.066-.093-.039-.101-.027"/><g clip-path="url(#z)"><g clip-path="url(#A)"><path style="stroke:none;fill-rule:evenodd;fill:#f1bdaf;fill-opacity:1" d="m21.418 29.969-.027.394-.04.496-.023.54v.328l.016.265.035.242.055.164.054.09.07.055.087.031.105-.004.074-.039.059-.074.058-.156.036-.227.039-.523.035-.653.012-.52v-.214Zm0 0"/></g></g><path style="stroke:none;fill-rule:evenodd;fill:#184657;fill-opacity:1" d="m22.113 29.602-.027-.094-.04-.059-.046-.035-.086-.016-.102.024-.101.05-.098.083-.082.101-.058.11-.047.152-.028.129-.02.21.005.083.11-.047.109-.031.144-.008.137.02.094.03.113.051.027-.12.028-.266-.004-.172-.028-.195"/><path style="stroke:none;fill-rule:evenodd;fill:#42966d;fill-opacity:1" d="m23.672 33.219-.035-.012-.028-.023-.246-.383-.363-.485-.402-.5-.473-.558-1.012-1.133-1.02-1.094-.894-.93-.64-.652-.254-.258-.024-.05.024-.051.05-.024.051.02.254.258.64.656.9.934 1.023 1.097 1.02 1.137.472.562.406.504.363.489.25.382.008.055-.035.047-.035.012"/><path style="stroke:none;fill-rule:evenodd;fill:#ffd6cb;fill-opacity:1" d="m20.934 29.941-.024.137.004.266.031.3.055.36.078.367.094.356.11.335.109.254.09.153.078.082.066.035.086-.004.062-.035.047-.078.035-.157v-.23l-.023-.25-.05-.281-.067-.285-.078-.278-.168-.52-.086-.218-.024-.047.07.027-.007-.074-.02-.078-.035-.094-.055-.09-.085-.081-.09-.047h-.059l-.05.023-.04.047-.054.105M27.21 30.29l.009.019.023.02.082.019-.086.011-.031.016-.016.023.008.024.04.023.105.02-.078.012-.028.015-.011.02.007.02.032.015.09.023.136-.03.09-.048.055-.058.035-.079.012-.09-.016-.113-.305-.015-.113.02-.027.03.007.02.024.016.078.015-.078.016-.031.016-.012.02"/><path style="stroke:none;fill-rule:evenodd;fill:#184657;fill-opacity:1" d="m24.895 34.234-.293.223-.293.168-.29.121-.222.059-.238.03-.25.005-.266-.031-.227-.055-.066-.047-.012-.039.016-.047.05-.066.216-.23.105-.153.074-.184.094-.289.09-.219.09-.16.152-.215.11-.113.117-.086Zm0 0"/><path style="stroke:none;fill-rule:evenodd;fill:#06171d;fill-opacity:1" d="m22.113 30.02.125.12.11.141.093.153.075.14.097.242.035.102-.582-.559Zm0 0"/><path style="stroke:none;fill-rule:evenodd;fill:#f29482;fill-opacity:1" d="m20.672 22.422-.047-.02-.023-.047.011-.054.051-.028 11.406-1.687-.12-1.059-.083-.972-9.445 1.402-.055-.012-.027-.05.012-.055.046-.027 9.524-1.418.055.015.027.055.09 1.055.133 1.117-.016.054-.047.032-11.48 1.695-.012.004"/><path style="stroke:none;fill-rule:evenodd;fill:#f29482;fill-opacity:1" d="m23.695 19.773.008.004ZM22.141 22.2h-.043l-.051-.027-.344-.383-.332-.34-.004-.008-.023-.05.023-.051.051-.024.05.024.005.004.316.324.328.363.238-.379.696-1.082.402-.601.195-.266.059-.05.027-.008.036.003.027.016.586.578.566.606.27.289.187.207.184.176.031-.067.113-.168.121-.176.149-.238.266-.41.28-.406.294-.473.297-.441.027-.024.035-.008.04.004.038.016.04.043.019.039.008.02.007.007.48.485.513.554.105.094.102.094.011.008.137.152.34.363.004-.008.039-.03.344-.532.312-.52.406-.625.422-.644.024-.02.031-.011.031.004.024.015.722.742.59.61.024.05-.02.055-.05.02-.051-.02-.594-.613-.656-.676-.399.602-.379.59-.351.578-.391.597v.004h-.004v.004l-.05.024h-.012l-.043-.02-.418-.437-.133-.149-.11-.098-.101-.09-.008-.007-.512-.555-.476-.48-.043-.059-.27.406-.273.442-.004.004-.281.402-.262.41-.148.238-.004.004-.118.172-.12.176-.008.023-.028.07-.054.052-.043.007-.043-.011-.012-.008-.219-.203-.219-.235-.265-.289-.543-.582-.559-.55-.219.304-.335.504-.375.582-.333.523-.28.438-.024.023ZM31.852 15.418h-.008l-8.192-.738-.047-.028-.02-.054.028-.051.051-.016 8.117.73.074-2.058-9.18-.828-.05-.027-.016-.051.024-.05.055-.02 9.25.835.046.028.016.05-.074 2.208-.028.05-.046.02"/><path style="stroke:none;fill-rule:evenodd;fill:#f29482;fill-opacity:1" d="M30.102 15.258h-.02l-.039-.031-.848-1.23-.73-1.052-.91 1.02-.836.93-.051.023-.04.004-.034-.008-.028-.027-.175-.242-.18-.25-.32-.47-.457-.663-.47-.637-.359.406-.3.328-.317.348-.39.441-.047.028-.055-.02-.023-.05.015-.055.395-.446.316-.347.32-.352.395-.445.023-.02.032-.007.031.007.023.02.5.68.485.699.32.469.176.246.144.195.844-.938.926-1.035.027-.02v-.003h.012l.02-.004h.007v.004l.04.016v.003h.003l.004.008.012.02.77 1.11.8 1.16.047-.055.14-.145.177-.215.183-.222.504-.555.36-.395.351-.394.05-.027.052.019.023.05-.016.052-.355.402-.36.394-.5.551-.359.438-.012.011-.128.133-.118.125-.007.008h-.004l-.016.008v.004Zm0 0"/><path style="stroke:none;fill-rule:evenodd;fill:#b83733;fill-opacity:1" d="m34.426 31.668-.028-.29-.07-.265-.113-.246-.156-.222-.184-.188-.219-.156-.242-.117-.262-.075-.28-.027-.216.008-.285.031-.297.047-.316.078-.313.106-.293.14.032.223.101.535.149.695.16.696.136.535.063.183.023.04.2.023.246-.004.25-.023.261-.047.258-.063.239-.074.222-.09.172-.09.016-.008v-.003l.21-.157.18-.187.153-.223.109-.242.07-.258.024-.285m-.184-3.973-.394.164-.688.235-.21.05-.18.02-.149-.004-.219-.047-.18-.07-.16-.098-.136-.093-.13-.094-.112-.063-.04-.03-.019-.04-.117-.719-.117-.91-.094-.973-.09-1.113-.078-1.152-.067-1.246-.101-2.575-.074-2.609-.043-2.504-.024-2.25-.008-1.863-.007-.04-.02-.03-.031-.02-.04-.008-.968.02-.031-.024.02-.035.347-.133.41-.148.317-.098.011-.004.239-.078.363-.082.402-.058.473-.051.492-.027.504-.008.504.015.465.043.441.075.348.101.043.031.02.051.046.809.028 1.004.003 1.058-.015 1.2-.028 1.234-.046 1.316-.125 2.692-.16 2.675-.18 2.512-.176 2.195-.168 1.723-.016.043-.035.031"/><path style="stroke:none;fill-rule:evenodd;fill:#e85f5b;fill-opacity:1" d="M29.633 9.727v1.8l.02 2.243.042 2.53.07 2.673.102 2.656.067 1.289.074 1.2.09 1.16.097 1.011.117.953.122.746.039.094.082.055.261.078.317.05.332.024h.348l.34-.016.312-.035.297-.047.218-.05.051-.028.043-.039.031-.047.012-.058.168-1.73.176-2.184.176-2.489.156-2.652.125-2.664.074-2.527.016-1.192-.004-1.054-.024-1-.042-.813-.016-.059-.027-.046-.04-.04-.05-.027-.336-.09-.41-.066-.43-.04-.465-.019-.465.008-.46.02-.446.043-.39.05-.368.067-.265.07-.06.027-.042.047-.027.055-.008.063m3.851 22.09-.023.288-.074.266-.114.246-.156.223-.183.187-.22.157-.241.117-.258.074-.285.027-.285-.027-.258-.074-.242-.117-.22-.157-.183-.187-.156-.223-.117-.246-.07-.266-.024-.289.023-.289.07-.265.118-.246.156-.223.184-.188.219-.16.242-.117.258-.07.285-.028.285.028.258.07.242.117.219.16.183.188.156.223.114.246.074.265.023.29"/><path style="stroke:none;fill-rule:evenodd;fill:#ffd6cb;fill-opacity:1" d="m7.883 37.84.004.164.008.387v.445l-.028.344v.117l.04.07.073.043.098.024h.23l.297-.004.426-.004h.383l.164.004.004-.043-.012-.04-.027-.042-.05-.035-.294-.094-.234-.106-.2-.101-.081-.047.004-1.012Zm0 0"/><path style="stroke:none;fill-rule:evenodd;fill:#0d232b;fill-opacity:1" d="M7.887 39.531h1.715v-.113H7.887Zm0 0"/><path style="stroke:none;fill-rule:evenodd;fill:#1c3038;fill-opacity:1" d="m8.61 39.426.019-.16.055-.192.066-.144.094.043.187.082.14.058.126.04.07.019-.02.05-.007.075v.078l.012.055Zm0 0"/><path style="stroke:none;fill-rule:evenodd;fill:#ffd6cb;fill-opacity:1" d="m5.527 37.84-.027.152-.063.371-.085.442-.09.375-.016.086.012.054.027.043.074.043.106.028h.238L6 39.43l.426-.004h.383l.164.004v-.043l-.008-.04-.031-.042-.047-.035-.293-.094-.235-.106-.199-.101-.086-.047.196-.992Zm0 0"/><path style="stroke:none;fill-rule:evenodd;fill:#0d232b;fill-opacity:1" d="M5.281 39.531h1.711v-.113h-1.71Zm0 0"/><path style="stroke:none;fill-rule:evenodd;fill:#1c3038;fill-opacity:1" d="m6.004 39.426.02-.16.05-.192.07-.144.094.043.188.082.14.058.125.04.07.019-.019.05-.008.075v.078l.008.055Zm0 0"/><path style="stroke:none;fill-rule:evenodd;fill:#fac0b0;fill-opacity:1" d="M8.031 27.371h.11l.257-.008.274-.011.164-.032.016-.035-.024-.094-.113-.238-.133-.23-.062-.102-.883.09Zm0 0"/><path style="stroke:none;fill-rule:evenodd;fill:#e85f5b;fill-opacity:1" d="m5.828 28.988-.094.383-.043.363-.007.371.027.422.129 1.028.023.285.004.445-.047 1.074-.09 1.246-.113 1.258-.113 1.102-.082.785-.035.297.863.094.055-.262.148-.688.203-.976.227-1.133.215-1.148.164-1.028.136-1.125.09-1.082.055-.922.027-.636.008-.243Zm0 0"/><path style="stroke:none;fill-rule:evenodd;fill:#c04c49;fill-opacity:1" d="m7.25 32.984.07-.613.078-.703.063-.688.047-.562-1.34-.855v.308l.031.3.063.29.093.285.133.293.176.305.117.207.106.234.172.488.117.434.074.277"/><path style="stroke:none;fill-rule:evenodd;fill:#ed6d53;fill-opacity:1" d="m8.383 28.719.172.722.136.692.114.687.086.715.058.735.031.82.008.86-.023 1-.07 1.64-.051.93-.035.414-.016.093-1.012.02-.027-.25-.074-.668-.094-.957-.098-1.121-.078-1.156-.039-1.07-.02-.34-.042-.286-.059-.238-.129-.34-.152-.277-.176-.254-.176-.238-.172-.239-.156-.258-.086-.18-.074-.21-.059-.238-.03-.243-.005-.289.02-.351Zm0 0"/><path style="stroke:none;fill-rule:evenodd;fill:#ffd6cb;fill-opacity:1" d="m8.934 26.59-.18-.309-.25-.367-.23-.312-.754.55.101.13.29.355.444.511.047.051.094.07.113.051.168.02.075-.016.062-.039.055-.062.047-.118.015-.16-.023-.168-.074-.187"/><path style="stroke:none;fill-rule:evenodd;fill:#fac0b0;fill-opacity:1" d="m6.578 23.512-.043.004-.02.03-.007.048-.059.004-.047.027-.027.04.02.015.082.05.09.079.042.039-.058-.02-.114-.023h-.046l-.016.015.016.032.074.058.2.13.097.073.066.067.078.12.11.208.328.594.09.125.148.175.363.391.407.398.367.336.234.192-.058-.254-.13-.32-.167-.332-.211-.364-.23-.363-.247-.356-.484-.64-.39-.473-.15-.164-.058-.047-.055-.011-.035.011-.035.028h-.066l-.035.027-.024.05"/><path style="stroke:none;fill-rule:evenodd;fill:#10303c;fill-opacity:1" d="m7.871 26.707.43.652.011-.113.032-.266.047-.28.03-.122.024-.055.13-.148.081-.063.082-.03-.09-.13Zm0 0"/><path style="stroke:none;fill-rule:evenodd;fill:#e0a89a;fill-opacity:1" d="m6.46 22.676.157.21.008.044-.031.023-.137.027Zm0 0"/><path style="stroke:none;fill-rule:evenodd;fill:#ffd6cb;fill-opacity:1" d="m6.488 22.762.004.242-.015.215-.024.136-.047.11-.058.086-.082.066-.114.035-.156.012-.059-.02-.062-.05-.07-.09-.09-.16-.078-.219-.059-.23-.035-.247-.055-.414-.008-.152.036-.102.05-.043.094-.035.156-.015.235.011.152.036.102.058.078.086.054.102.028.129.02.207.003.246"/><path style="stroke:none;fill-rule:evenodd;fill:#333;fill-opacity:1" d="m6.48 22.488-.054.008-.11.008-.027.004-.016.004h-.02l-.003-.004.004-.016.012.008-.004-.008h-.008.004v-.004l.023-.011.028-.012.058-.012.059.004.054.012.008.011Zm0 0"/><path style="stroke:none;fill-rule:evenodd;fill:#ffd6cb;fill-opacity:1" d="m4.969 24.965.312.133.32.101.333.074.34.051.68.07-.009-.07-.02-.078-.05-.086-.125-.172-.102-.11-.117-.081-.136-.05-.055-.017-.043-.027-.031-.039-.032-.078-.058-.27-.078-.445-.086-.48-.067-.387-.027-.16-.79.207.009.14.011.34.016.422.008.39-.008.239-.016.094-.035.097-.054.09-.09.102"/><path style="stroke:none;fill-rule:evenodd;fill:#0d232b;fill-opacity:1" d="m6.43 22.66-.012.024-.027.007-.024-.015-.008-.024.016-.023.023-.008.024.012.008.027"/><path style="stroke:none;fill-rule:evenodd;fill:#333;fill-opacity:1" d="m5.11 23.625-.102-.04-.082-.062-.063-.082-.035-.097-.012-.102.02-.113.031-.121.012-.13-.012-.128-.047-.121-.058-.145-.028-.14.008-.14.04-.138.066-.117.09-.101.109-.075.133-.043.156-.003.238.011.18-.02.289-.062.121-.015.113.015.067.035.039.047.02.063-.008.097-.055.09-.004.02.008.012.004.011-.008.004-.086.02-.07.05-.032.051-.011.07.007.106.016.129-.02.086-.078.148-.03.067v.082l-.087.008-.008-.079-.007-.16-.004-.148-.055.023-.059.051-.058.098-.059.164-.027.21-.016.192-.035.14-.043.098-.062.086-.07.055-.075.035-.129.02-.133-.012"/><path style="stroke:none;fill-rule:evenodd;fill:#fac0b0;fill-opacity:1" d="m5.96 23.168-.136-.023-.11-.07-.077-.11-.032-.137.024-.137.07-.113.106-.078.133-.031Zm0 0"/><path style="stroke:none;fill-rule:evenodd;fill:#e0a89a;fill-opacity:1" d="m5.953 23.004-.07-.012-.059-.039-.039-.058-.02-.07.016-.075.035-.059.055-.039.074-.02Zm0 0"/><path style="stroke:none;fill-rule:evenodd;fill:#184657;fill-opacity:1" d="m4.738 25.902-.023-.191.008-.219.039-.226.078-.235.125-.218.176-.204.168-.043.394-.086.23-.035.22-.015.386.004.227.023.246.04.238.066.227.093.203.125.164.164.297.399.28.406.208.313.082.128-.094.094-.14.117-.32.215-.157.086-.105.04.066.136.16.355.184.489.074.273.055.274.027.273-.016.246-.07.066-.102.063-.23.094-.293.078-.488.094-.399.03-.347-.01-.325-.048-.222-.047-.215-.062.043-.18.023-.195-.008-.305-.027-.207-.062-.246-.102-.293-.164-.371-.14-.266-.258-.41-.2-.32-.07-.156-.05-.196"/><path style="stroke:none;fill-rule:evenodd;fill:#fcc14a;fill-opacity:1" d="m6.91 26.898-.02-.074-.156.04-.382.09-.489.093-.254.035-.23.02.039.07.477-.055.476-.09.371-.09.168-.039M5.105 26.645l.047.074.23-.012.266-.031.524-.094.418-.098.191-.047-.02-.07-.183.047-.433.098-.543.093-.27.032-.227.008"/><path style="stroke:none;fill-rule:evenodd;fill:#10303c;fill-opacity:1" d="m7.305 25.77.101.285.254.742.328 1.008.317 1.093.113-.078.027-.03.012-.282-.035-.317-.074-.312-.094-.305-.207-.515-.11-.23-.042-.087-.274-.445-.223-.375-.093-.152"/><path style="stroke:none;fill-rule:evenodd;fill:#ffd6cb;fill-opacity:1" d="m8.023 27.008-.136.047-.09.05-.05.067.01.035.036.012.07-.004.14-.027.071-.024-.074.02-.137.05-.054.04-.016.042.027.036.067.011.152-.023.082-.024-.059.02-.105.055-.039.043-.004.043.024.03.046.009.106-.024.055-.023-.04.015-.074.051-.023.031-.004.032.039.027.074-.004.074-.035.063-.07.027-.067.02-.097.004-.106-.012-.117-.04-.113-.062-.102-.125-.113-.078-.043-.082-.012Zm0 0"/><g clip-path="url(#B)"><path style="stroke:none;fill-rule:evenodd;fill:#659db1;fill-opacity:1" d="M47.14 39.965H2.747l-.082-.016-.066-.047-.043-.066-.02-.086.02-.082.043-.07.066-.047.082-.016h44.395l.082.016.066.047.043.07.016.082-.016.086-.043.066-.066.047-.082.016"/></g><path style="stroke:none;fill-rule:evenodd;fill:#41b093;fill-opacity:1" d="m19.082 39.563.207-.192.172-.215.14-.246.11-.262.062-.277.024-.305-.016-.257-.05-.246-.079-.231-.105-.219-.137-.203-.156-.18-.176-.156-.2-.14-.214-.11-.227-.078-.238-.05-.258-.02-.175.011-.168.024-.094-.27-.125-.242-.16-.222-.188-.2-.21-.168-.239-.136-.258-.102-.27-.062-.288-.024-.262.016-.246.054-.235.083-.218.113-.2.136-.183.165-.16.183-.137.207-.11.223-.081.238-.051.25-.02.266.02.273.055.254-.192-.039-.203-.016-.27.028-.246.066-.23.113-.207.153-.176.176-.148.214-.11.23-.066.255-.027.273.019.239.05.222.083.207.113.196ZM37.684 39.563l.168-.16.144-.176.117-.204.09-.218.055-.23.02-.25-.028-.286-.07-.262-.114-.242-.152-.219-.184-.187-.214-.152-.239-.118-.257-.07-.282-.027-.144.008-.137.02-.078-.224-.106-.199-.132-.187-.153-.164-.175-.137-.2-.113-.21-.086-.223-.051-.242-.02-.286.028-.261.074-.246.117-.22.16-.187.188-.156.226-.117.246-.07.27-.028.293.016.223.043.21-.156-.03-.168-.012-.223.02-.207.058-.188.093-.172.122-.148.148-.121.176-.09.195-.055.207-.023.227.027.261.075.239.117.215Zm0 0"/><path style="stroke:none;fill-rule:evenodd;fill:#41b093;fill-opacity:1" d="m33.484 39.563-.172-.16-.144-.176-.117-.204-.086-.218-.055-.23-.02-.25.024-.286.07-.262.114-.242.156-.219.18-.187.214-.152.239-.118.258-.07.28-.027.145.008.14.02.075-.224.106-.199.132-.187.157-.164.175-.137.196-.113.21-.086.227-.051.239-.02.285.028.265.074.243.117.222.16.188.188.152.226.117.246.074.27.024.293-.016.223-.043.21.16-.03.164-.012.227.02.203.058.192.093.171.122.145.148.121.176.094.195.055.207.02.227-.028.261-.075.239-.117.215ZM14.613 39.563l-.172-.16-.14-.176-.121-.204-.086-.218-.055-.23-.02-.25.028-.286.07-.262.113-.242.153-.219.183-.187.215-.152.239-.118.257-.07.278-.027.144.008.14.02.079-.224.102-.199.132-.187.157-.164.175-.137.2-.113.21-.086.223-.051.238-.02.29.028.261.074.246.117.22.16.187.188.156.226.117.246.07.27.028.293-.016.223-.043.21.156-.03.168-.012.223.02.203.058.192.093.171.122.145.148.125.176.09.195.054.207.024.227-.031.261-.07.239-.122.215Zm0 0"/><path style="stroke:none;fill-rule:evenodd;fill:#e85f5b;fill-opacity:1" d="m24.84 24.297-.07-.043-.168-.082-.098-.031-.086-.02-.078.008-.05.039-.02.066.015.055.043.05.059.04.125.058.062.02-.066-.012-.145-.008-.078.004-.066.024-.047.039-.016.058.032.079.07.039.09.015.086-.004.093-.015-.078.043-.066.047-.059.062-.031.074.02.082.05.043.075.004.078-.023.09-.043.156-.106.086-.035.093.008.137.043.215.043.238.008.285-.04.247-.077.156-.079.129-.085.09-.07.082-.067.078-.043.129-.04.128-.023.266-.058.074-.047.047-.063.02-.078-.016-.078-.047-.062-.101-.055-.16-.031-.297-.008-.332.02-.438.07-.531.125-.363.113-.137.047"/><path style="stroke:none;fill-rule:evenodd;fill:#fcc14a;fill-opacity:1" d="m27.168 24.184.047-.149.238.121-.242.125Zm0 0"/><path style="stroke:none;fill-rule:evenodd;fill:#000;fill-opacity:1" d="m27.078 24.145-.012.058-.046.031-.055-.011-.031-.051.011-.055.047-.031.059.012.027.047"/><path style="stroke:none;fill-rule:evenodd;fill:#eb716d;fill-opacity:1" d="m25.27 24.52-.024-.114-.058-.277-.063-.34-.055-.309-.015-.242.011-.12.028-.055.027-.02.031.004.024.027.039.078.074.196.063.191.027.082-.024-.117-.039-.262-.015-.27.02-.1.038-.036.047.016.059.074.098.234.07.238.023.11-.015-.098-.024-.21v-.22l.02-.082.035-.027.055.024.078.109.14.344.145.402.137.434.03.148-.109.078-.128.059-.215.054-.223.02-.16-.004-.152-.02"/><path style="stroke:none;fill-rule:evenodd;fill:#cbc7ff;fill-opacity:1" d="m27.168 24.184.285-.028-.242.125Zm0 0"/><path style="stroke:none;fill-rule:evenodd;fill:#ef7d66;fill-opacity:1" d="m39.781 9.578-.543.024-.48.07-.43.105-.383.145-.297.156-.265.172-.23.195-.2.211-.176.239-.14.253-.114.278-.082.297-.054.32-.016.348.008.273.027.258-.238.215-.309.297-.648.671-.613.672-.446.532.258-.067.356-.101.789-.266.8-.313.375-.16.293-.14.22.207.257.187.297.164.336.14.344.102.386.075.434.05.484.016.524-.015.465-.055.406-.078.351-.11.313-.129.273-.152.235-.172.218-.21.184-.235.156-.262.121-.293.09-.324.059-.367.02-.41-.02-.344-.047-.317-.082-.296-.106-.274-.14-.254-.168-.238-.196-.211-.226-.2-.262-.171-.297-.156-.379-.145-.433-.11-.496-.073-.563-.024"/><path style="stroke:none;fill-rule:evenodd;fill:#fff;fill-opacity:1" d="M38.066 13.64h3.446v-.175h-3.446Zm0-1.124h3.446v-.172h-3.446Zm0-1.125h3.446v-.172h-3.446Zm0 0"/><path style="stroke:none;fill-rule:evenodd;fill:#1b4e61;fill-opacity:1" d="m39.488 34.453-.031.11-.07.261-.063.313-.015.152v.113l.023.09.047.028.078-.02.094-.078.09-.11.097-.144.176-.313.148-.28.18-.337.125-.25.012-.058-.02-.055-.199-.293-.824.586Zm0 0"/><path style="stroke:none;fill-rule:evenodd;fill:#ffcb8a;fill-opacity:1" d="m39.473 34.43-.035.125-.079.297-.058.336-.012.156.016.097.023.008.078-.023.098-.074.086-.11.097-.144.18-.313.149-.281.16-.305.125-.242.047-.102-.203-.296-.825.586Zm0 0"/><path style="stroke:none;fill-rule:evenodd;fill:#faf8dc;fill-opacity:1" d="m39.578 34.559-.09.023-.066.031-.082.34.105-.039.106-.02.11.012.109.051.156-.289-.063-.043-.082-.043-.093-.023h-.11"/><path style="stroke:none;fill-rule:evenodd;fill:#ebb445;fill-opacity:1" d="M39.438 34.941h-.012l-.012-.015.066-.266.075-.219.03-.097.02-.008.008.02-.035.093-.07.223-.067.258-.004.011"/><path style="stroke:none;fill-rule:evenodd;fill:#e85f5b;fill-opacity:1" d="m39.7 34.41-.013-.015-.085.007-.067.02-.086.043-.004.02.02.003.078-.039.062-.02.083-.007h.007l.004-.012m-.039.11-.012-.016-.086.008-.066.02-.086.046-.004.02.02.004.078-.04.062-.019.082-.008.008-.004.004-.011m-.023.101-.012-.016-.086.008-.066.02-.086.043-.004.02.02.003.077-.039.063-.02.082-.007h.008l.004-.012m-.028.102-.011-.016-.09.012-.063.02-.086.042-.004.02.02.004.078-.04.063-.019.078-.008.011-.004.004-.011m-.027.113h-.008l-.082.008-.058.02-.082.038-.02-.004.004-.02.086-.042.066-.02.086-.007.016.015-.008.012"/><path style="stroke:none;fill-rule:evenodd;fill:#1b4e61;fill-opacity:1" d="m41.941 34.05-.03.11-.071.262-.063.312-.015.153V35l.023.086.047.031.074-.023.098-.074.09-.11.093-.144.18-.313.149-.281.18-.336.124-.25.012-.059-.023-.054-.196-.293-.828.586Zm0 0"/><path style="stroke:none;fill-rule:evenodd;fill:#ffcb8a;fill-opacity:1" d="m41.926 34.027-.04.125-.074.297-.062.336-.008.156.012.094.027.008.078-.02.094-.078.09-.105.098-.145.175-.312.149-.281.164-.305.172-.344-.207-.297-.824.586Zm0 0"/><path style="stroke:none;fill-rule:evenodd;fill:#ffcb8a;fill-opacity:1" d="m42.207 34.219.133.117.125-.234.164-.305.172-.344-.125-.176-.156.34-.176.348-.137.254"/><path style="stroke:none;fill-rule:evenodd;fill:#faf8dc;fill-opacity:1" d="m42.031 34.156-.09.024-.07.03-.082.34.106-.042.109-.016.105.012.114.05.156-.288-.063-.043-.082-.043-.093-.024h-.11"/><path style="stroke:none;fill-rule:evenodd;fill:#ebb445;fill-opacity:1" d="m41.887 34.535-.008.004-.012-.016.067-.265.07-.219.035-.098.02-.007.007.02-.035.093-.07.219-.066.261-.008.008"/><path style="stroke:none;fill-rule:evenodd;fill:#e85f5b;fill-opacity:1" d="m42.152 34.008-.015-.016-.086.008-.067.02-.082.042-.004.02.02.004.078-.04.063-.019.078-.007.008-.004.007-.008m-.039.11-.011-.016-.09.007-.067.02-.082.047-.004.02.02.003.078-.043.059-.02.082-.007h.007l.008-.012m-.023.102-.012-.016-.09.008-.066.02-.082.042-.004.02.02.004.078-.04.062-.019.078-.008.012-.003.004-.008m-.028.101-.015-.015-.086.008-.066.023-.086.043-.004.02.02.003.081-.043.059-.015.082-.008.008-.004.008-.012m-.028.11-.008.004-.082.007-.062.02-.078.039-.02-.004.004-.02.086-.042.066-.02.086-.008.012.016-.004.008"/><path style="stroke:none;fill-rule:evenodd;fill:#0d232b;fill-opacity:1" d="m38.527 23.555-.164.37-.195.5-.188.532-.19.61-.177.628-.156.657-.121.664-.082.636-.031.426v.395l.023.363.047.3.074.333.106.363.191.543.23.563.254.554.258.528.496.93.375.652.149.246.14-.028.18-.082.176-.113.16-.133.133-.137.062-.101-.117-.266-.293-.691-.37-.98-.188-.547-.176-.57-.145-.571-.11-.535-.046-.36-.016-.316.008-.277.059-.426.097-.473.13-.48.152-.492.168-.489.164-.457.324-.804.242-.56.094-.21Zm0 0"/><path style="stroke:none;fill-rule:evenodd;fill:#1c3038;fill-opacity:1" d="m39.934 24.227-.164.558-.165.668-.14.703-.117.754-.082.762-.036.754v.5l.028.469.054.437.086.434.114.375.144.324.266.465.285.449.3.43.294.386.535.66.39.442.153.16.133-.043.172-.102.164-.124.152-.141.129-.149.062-.109-.12-.187-.31-.485-.406-.668-.421-.73-.356-.676-.133-.3-.07-.212-.047-.293-.016-.406.02-.434.047-.503.07-.512.082-.531.192-1.032.191-.894.145-.625.058-.238Zm0 0"/><path style="stroke:none;fill-rule:evenodd;fill:#b15e7c;fill-opacity:1" d="m41.48 25.137.098-.418.04-.157-1.38-.273.016-.039-1.727-.695-.093.207.183.14.281.18.313.18.367.195.387.184.406.172.41.144.39.11.31.07"/><path style="stroke:none;fill-rule:evenodd;fill:#ffd6cb;fill-opacity:1" d="m40.14 20.512-.234.097-.195.082-.223.125-.097-.05-.098-.059-.098-.172-.078-.23-.054-.305-.016-.305.008-.347.039-.399.07-.39.098-.41.133-.434.34-.926.308-.738.309-.664.23-.438.219-.355.136-.2.094-.105.059-.035.035.004.016.02.004.03-.036.07.067-.05.031-.012.027.008.016.024v.043l-.047.101.082-.086.04-.02.034.005.02.03-.008.056-.066.132.074-.074.039-.02.031.005.012.03-.02.079-.097.2.015-.024.04-.028.035.02.011.05-.047.126-.16.261-.277.496-.168.348-.215.48-.195.536-.153.558-.105.57-.063.528-.027.512.012.402.02.328.015.145.031.129.055.109.082.098-.11.039"/><path style="stroke:none;fill-rule:evenodd;fill:#ebad9c;fill-opacity:1" d="m39.54 20.055-.481-.149-.004-.347.023-.368.047-.39.078.05.11.051.246.078.117.028.133.012h.129l.097-.016v.308l-.172.258-.195.266-.082.125-.047.094"/><path style="stroke:none;fill-rule:evenodd;fill:#ffd6cb;fill-opacity:1" d="m42.297 21.414.11.445.073.453h.133l.149-.015.175-.05.211-.09.309-.177.348-.25.34-.293.34-.347.32-.375.293-.41.25-.407.183-.316.157-.3.12-.266.223-.559.262-.687.129-.399.039-.246-.004-.148-.023-.07-.032-.028-.027.004-.023.02-.024.074-.012-.082-.015-.032-.024-.015-.027.004-.027.035-.04.105v-.117l-.015-.047-.027-.02-.036.008-.03.043-.044.145-.004-.11-.015-.039-.024-.015-.027.012-.043.07-.063.21.004-.027-.007-.046-.04-.012-.042.031-.051.121-.055.184-.152.398-.211.465-.36.695-.191.32-.2.298-.214.27-.344.374-.34.32-.351.286-.317.222-.207.137-.168.09-.109.039-.117.015-.121-.015.035.117"/><path style="stroke:none;fill-rule:evenodd;fill:#ebad9c;fill-opacity:1" d="m44.035 21.535-.437.34-.426.27-.383-.375.043-.09.047-.137.098-.305.113-.277.062-.043.067-.047.125.207.105.125.121.121.149.106.113.058.113.032.09.015"/><path style="stroke:none;fill-rule:evenodd;fill:#ffc5b5;fill-opacity:1" d="m41.223 21.672-.137.074-.145.043-.379-.121-.124-.137-.102-.172-.121-.285-.074-.308.347-.02.11-.023.062-.032.05-.05.052-.075.11-.273.132-.426.11-.39.046-.172.852.297-.047.168-.11.382-.113.422-.062.27.004.082.043.086.07.09.098.101-.325.246-.347.223"/><path style="stroke:none;fill-rule:evenodd;fill:#ebad9c;fill-opacity:1" d="m40.922 20.152.11-.375.09-.308.038-.133.664.332-.094.18-.12.148-.145.113-.149.07-.16.032-.148-.023Zm0 0"/><path style="stroke:none;fill-rule:evenodd;fill:#ffcec0;fill-opacity:1" d="m41.66 19.254-.015.125.03.117.075.094.105.062.122.016.113-.035.094-.07.062-.11.016-.125-.035-.117-.07-.094-.106-.062-.125-.016-.114.035-.09.07-.062.11"/><path style="stroke:none;fill-rule:evenodd;fill:#ebad9c;fill-opacity:1" d="m41.797 19.3-.008.067.02.063.035.047.058.035.063.008.062-.02.047-.035.031-.059.008-.066-.015-.063-.04-.047-.054-.035-.066-.008-.06.02-.046.04-.035.054"/><path style="stroke:none;fill-rule:evenodd;fill:#ffd6cb;fill-opacity:1" d="m40.855 19.023-.054.227-.016.203.02.195.066.165.07.09.094.074.121.058.106.02.101-.004.106-.028.144-.085.14-.137.114-.172.086-.211.059-.227.023-.199-.004-.133-.027-.117-.047-.101-.066-.09-.102-.078-.137-.067-.164-.043-.129-.004-.101.028-.094.054-.082.079-.07.105-.082.18-.075.218"/><path style="stroke:none;fill-rule:evenodd;fill:#000;fill-opacity:1" d="M41.563 19.027v.035l.027.024.035-.004.02-.023-.004-.036-.024-.023-.035.004-.02.023M40.996 18.84v.027l.024.02h.027l.02-.024v-.031l-.024-.02-.027.004-.02.024"/><path style="stroke:none;fill-rule:evenodd;fill:#ebad9c;fill-opacity:1" d="m41.258 18.906-.168.164-.008.035.023.028.118.043Zm0 0"/><path style="stroke:none;fill-rule:evenodd;fill:#fff;fill-opacity:1" d="M40.96 19.262v.043l.028.047.047.039.067.03.07.017.058-.008.051-.02.024-.035-.004-.027-.035-.016-.13-.027-.116-.055-.04-.012-.02.024"/><path style="stroke:none;fill-rule:evenodd;fill:#1b4e61;fill-opacity:1" d="m42.027 19.113-.074.235-.082-.024.04-.125.023-.125Zm0 0"/><path style="stroke:none;fill-rule:evenodd;fill:#103442;fill-opacity:1" d="m42.027 19.113-.074.235-.082-.024.04-.125.023-.125Zm0 0"/><path style="stroke:none;fill-rule:evenodd;fill:#103442;fill-opacity:1" d="m41.48 17.758.149.035.152.059.145.082.125.086.101.101.067.09.058.14.04.063.023.008.062.004.063.02.055.054.035.07.023.094.004.094-.016.094-.066.21-.055.067-.117.047-.133.023-.078.008-.066-.012-.043-.023-.082-.074-.082-.09-.051-.106-.02-.12v-.177l-.117-.023-.25-.062-.133-.043-.093-.051-.024-.055-.015-.105-.004-.114.015-.12.043-.114.063-.09.054-.043.07-.023Zm0 0"/><path style="stroke:none;fill-rule:evenodd;fill:#0d2933;fill-opacity:1" d="m42.05 18.719.118.008.078.02.059.034.043.07.054.09.035.063.02.058-.008.051-.05.04-.192.046-.113-.004L42 19.16l-.074-.062-.082-.086-.051-.09-.023-.11v-.167l.011-.047h.028l.097.066.067.035Zm0 0"/><path style="stroke:none;fill-rule:evenodd;fill:#103442;fill-opacity:1" d="m41.79 18.965-.083-.04-.082-.03-.082-.016h-.09l-.012-.012.004-.012.098-.03.102.01.09.044.035.031.035.035v.02ZM41.227 18.79l-.063-.044-.062-.031-.063-.02h-.062v.004l-.02-.012.004-.011.039-.024.043-.007.082.015.07.047.028.027.023.036-.008.02Zm0 0"/><path style="stroke:none;fill-rule:evenodd;fill:#e289a9;fill-opacity:1" d="m43.887 21.734-.125-.093-.125-.106-.153-.156-.18-.227-.136-.203-.055-.086-.09.063-.175.094-.391.18-.121.034-.121.012-.117-.016-.114-.043-.101-.062-.086-.094-.09-.14-.016-.047-.12.031-.25.047-.13.012-.082-.008-.058-.047-.07-.102-.11-.23-.047-.121-.34-.008-.117-.023-.097-.063-.067-.098-.031-.117-.02-.472-.007-.399v-.164l-.102.004h-.25l-.148-.016-.157-.027-.363-.098-.14-.043-.016.176-.024.45v.6l.024.321.039.309-.086.496-.156.726-.168.762-.141.602-.055.242.141.105.164.106.277.148.32.149.434.168.336.101.344.078.344.059.308.04.489.042.191.012.05-.157.134-.382.18-.496.183-.48.156-.352.496-.313.465-.324.34-.254.133-.102"/><path style="stroke:none;fill-rule:evenodd;fill:#708c97;fill-opacity:1" d="m41.027 20.852-.015-.028-.145.281-.176.348-.148.305-.066.129-.004.008.148.226.024-.016-.137-.214.078-.157.144-.293.165-.324.132-.265m-.37.992h-.028l-.02.02-.004.027.02.023h.027l.024-.02v-.027l-.02-.023m.137-.274h-.031l-.02.02-.004.027.02.024.027.004.024-.02v-.031l-.016-.024m.266-.543h-.028l-.023.016v.031l.02.024h.027l.023-.02v-.027l-.02-.024m-.117.325-.02.02-.03-.005-.016-.02v-.03l.023-.02.028.004.02.023-.005.028"/><path style="stroke:none;fill-rule:evenodd;fill:#e69bb6;fill-opacity:1" d="m40.746 21.055.332-.153-.058-.062-.06-.102-.097-.21-.039-.102-.312-.008.058.23.09.239.086.168M41.2 21.285l.066-.008.164-.035.195-.07.2-.106-.079-.101-.035-.063-.02-.058-.117.027-.242.05-.129.013-.082-.008Zm0 0"/><path style="stroke:none;fill-rule:evenodd;fill:#fcc14a;fill-opacity:1" d="m41.488 17.355-.043-.02-.02-.042-.015-1.195.02-.043.039-.02h.004l.039.02.02.043.015 1.195-.016.043Zm1.207.18-.02-.004-.034-.031-.004-.047.37-1.098.032-.035.043-.004.035.032.004.047-.371 1.097-.023.031Zm.98.54-.046-.02-.016-.043.02-.043.804-.739.043-.015.043.02.016.046-.02.043-.804.735Zm0 0"/></svg>