<?xml version="1.0" standalone="no"?><!DOCTYPE svg PUBLIC "-//W3C//DTD SVG 1.1//EN" "http://www.w3.org/Graphics/SVG/1.1/DTD/svg11.dtd"><svg t="1662473997209" class="icon" viewBox="0 0 1024 1024" version="1.1" xmlns="http://www.w3.org/2000/svg" p-id="3692" xmlns:xlink="http://www.w3.org/1999/xlink" width="128" height="128"><path d="M517.119 954.878c244.589 0 442.879-198.289 442.879-442.879 0-244.594-198.289-442.879-442.879-442.879C272.524 69.12 74.24 267.404 74.24 511.999 74.24 756.588 272.524 954.878 517.119 954.878L517.119 954.878zM517.119 891.608c-209.654 0-379.612-169.955-379.612-379.609s169.957-379.612 379.612-379.612 379.609 169.957 379.609 379.612S726.773 891.608 517.119 891.608L517.119 891.608zM523.949 243.992c-54.662 0-97.177 16.705-127.547 50.112-30.367 31.885-44.795 74.402-44.795 127.547l59.98 0c0-37.202 8.35-66.052 25.055-87.31 18.222-25.055 46.312-37.202 84.272-37.202 31.885 0 56.945 8.352 74.405 26.572 16.705 16.702 25.81 40.24 25.81 70.607 0 21.26-7.59 41-22.775 59.98-4.55 6.072-13.665 15.185-25.81 27.33-41 36.445-66.055 65.295-76.685 88.075-9.11 18.98-13.665 40.995-13.665 66.05l0 17.465 60.735 0 0-17.465c0-20.5 4.56-38.725 14.43-55.425 7.59-13.665 18.98-27.335 35.68-41.755 33.405-29.612 53.91-49.352 61.5-58.462 18.98-25.055 28.85-54.665 28.85-88.83 0-45.552-14.425-81.235-42.515-107.05C611.258 256.902 572.544 243.992 523.949 243.992L523.949 243.992zM512.564 706.363c-12.907 0-23.535 3.795-32.647 12.905-9.11 8.345-12.905 18.98-12.905 31.885s3.795 23.54 12.905 32.65c9.112 8.345 19.74 12.905 32.647 12.905 12.91 0 23.535-4.56 32.645-12.905 9.11-8.355 13.665-18.985 13.665-32.65 0-12.905-4.555-23.54-12.905-31.885C536.859 710.158 525.474 706.363 512.564 706.363L512.564 706.363z" p-id="3693" fill="#515151"></path></svg>