<?xml version="1.0" standalone="no"?><!DOCTYPE svg PUBLIC "-//W3C//DTD SVG 1.1//EN" "http://www.w3.org/Graphics/SVG/1.1/DTD/svg11.dtd"><svg t="1662474042765" class="icon" viewBox="0 0 1024 1024" version="1.1" xmlns="http://www.w3.org/2000/svg" p-id="4704" xmlns:xlink="http://www.w3.org/1999/xlink" width="128" height="128"><path d="M511.51086 191.938474c3.901867 0 7.855922 2.629897 9.619078 6.404873l76.456323 163.568333 14.470572 30.958082 33.778315 5.17793 176.005596 26.978444c4.025687 0.613984 7.151887 3.372817 8.588609 7.573489 1.49812 4.597715 0.525979 9.113565-2.705622 12.433171L698.311313 578.179258l-22.428825 23.075555 5.163603 31.762401 30.01664 184.659697c0.708128 4.342912-1.251503 9.267061-4.669346 11.773138-1.888 1.294482-3.837398 1.923816-5.951549 1.923816-1.657756 0-3.391237-0.452301-4.885263-1.27504L542.540573 745.200226l-31.029713-17.217127-31.029714 17.217127-152.8492 84.810595c-1.804089 0.979304-3.708462 1.184989-4.993735 1.184988-2.229784 0-4.393054-0.618077-5.947455-1.697665-3.517103-2.547009-5.465478-7.361665-4.743025-11.745508l0.011257-0.070608 0.011256-0.070609 29.979802-184.605461 5.15644-31.749098-22.413476-23.070438-129.371486-133.156696-0.034792-0.035816-0.034793-0.035816c-3.152806-3.234671-4.151553-7.829316-2.676969-12.299117 1.429559-4.243651 4.564969-7.03216 8.625448-7.652284l175.983084-26.960025 33.787524-5.175882 14.470573-30.967293 76.41232-163.519214c1.77646-3.795443 5.747911-6.445806 9.656941-6.445805m0-63.956638c-28.733415 0-55.262628 16.983813-67.577095 43.278689L367.498932 334.828858 191.515848 361.78786c-27.747971 4.242627-50.581002 23.639396-59.603493 50.610678-9.069563 27.215852-2.341325 56.800657 17.537422 77.197196l129.370463 133.159766-29.979802 184.604438c-4.693906 28.500101 7.41897 57.661258 30.884405 74.331939 12.605086 8.908904 27.721365 13.461593 42.912345 13.461593 12.334933 0 24.720008-3.003404 35.839253-9.114588l153.034419-84.913949 153.08456 84.937485a74.228585 74.228585 0 0 0 35.84744 9.268084c15.358803 0 30.170137-4.721535 42.881646-13.662161 23.39585-16.623609 35.509748-45.783743 30.861892-74.284867l-30.011525-184.628998 129.413442-133.147486c19.854187-20.396539 26.571169-49.970088 17.513886-77.246315-9.03477-26.960025-31.886221-46.332235-59.615773-50.561559L655.525857 334.828858l-76.456322-163.568333c-12.280698-26.28362-38.801724-43.278689-67.558675-43.278689z" p-id="4705" fill="#515151"></path></svg>