<?xml version="1.0" standalone="no"?><!DOCTYPE svg PUBLIC "-//W3C//DTD SVG 1.1//EN" "http://www.w3.org/Graphics/SVG/1.1/DTD/svg11.dtd"><svg t="1662474140684" class="icon" viewBox="0 0 1024 1024" version="1.1" xmlns="http://www.w3.org/2000/svg" p-id="9465" xmlns:xlink="http://www.w3.org/1999/xlink" width="128" height="128"><path d="M511.989255 817.677934c-202.457038 0-368.377952-180.491771-430.303326-258.101359-22.375613-28.098965-22.375613-67.128887 0-95.151104 61.848627-77.611635 227.770564-258.103406 430.303326-258.103406 202.533786 0 368.45777 180.491771 430.381098 258.103406 22.298865 28.022217 22.298865 67.052139 0 95.075379C880.3713 637.186164 714.450387 817.677934 511.989255 817.677934M511.989255 282.443767c-174.208671 0-327.865259 175.660742-370.796024 229.483578 42.930765 53.967122 196.660009 229.627864 370.796024 229.627864 174.139086 0 327.868329-175.660742 370.833887-229.479485l-0.034792-0.148379C839.857585 458.104509 686.200996 282.443767 511.989255 282.443767" p-id="9466" fill="#515151"></path><path d="M511.989255 665.435555c-83.96432 0-152.243403-68.317968-152.243403-152.244426 0-84.002183 68.279083-152.24545 152.243403-152.24545 17.359366 0 34.382065 2.899026 50.623981 8.623401 19.812231 6.988158 30.221302 28.770254 23.233144 48.543599-7.02602 19.847024-28.696576 30.106692-48.582485 23.267936-8.064676-2.90005-16.538675-4.313236-25.27464-4.313236-41.961694 0-76.121701 34.121122-76.121701 76.124771 0 41.926902 34.160008 76.121701 76.121701 76.121701 41.965787 0 76.121701-34.1948 76.121701-76.121701 0-21.038152 16.98893-38.063921 38.063921-38.063921 21.072945 0 38.059827 17.025769 38.059827 38.063921C664.234705 597.117586 595.953575 665.435555 511.989255 665.435555" p-id="9467" fill="#515151"></path></svg>