<?xml version="1.0" standalone="no"?><!DOCTYPE svg PUBLIC "-//W3C//DTD SVG 1.1//EN" "http://www.w3.org/Graphics/SVG/1.1/DTD/svg11.dtd"><svg t="1663065723454" class="icon" viewBox="0 0 1024 1024" version="1.1" xmlns="http://www.w3.org/2000/svg" p-id="3195" xmlns:xlink="http://www.w3.org/1999/xlink" width="128" height="128"><path d="M838.954667 234.666667H170.666667c-3.626667 0-7.168 0.448-10.56 1.322666l323.690666 323.669334a21.333333 21.333333 0 0 0 30.165334 0L838.954667 234.666667z m46.144 14.186666l-260.693334 260.693334 262.933334 262.912c5.44-7.168 8.661333-16.106667 8.661333-25.792V277.333333c0-10.944-4.117333-20.906667-10.88-28.48zM843.861333 789.333333l-249.6-249.621333-50.133333 50.133333a64 64 0 0 1-90.517333 0l-50.112-50.133333L156.373333 786.88c4.48 1.578667 9.28 2.453333 14.314667 2.453333h673.194667zM128.661333 754.218667L373.333333 509.525333 129.578667 265.813333A42.709333 42.709333 0 0 0 128 277.333333v469.333334c0 2.56 0.213333 5.098667 0.661333 7.552zM170.666667 192h682.666666a85.333333 85.333333 0 0 1 85.333334 85.333333v469.333334a85.333333 85.333333 0 0 1-85.333334 85.333333H170.666667a85.333333 85.333333 0 0 1-85.333334-85.333333V277.333333a85.333333 85.333333 0 0 1 85.333334-85.333333z" fill="#515151" p-id="3196"></path></svg>