<?xml version="1.0" standalone="no"?><!DOCTYPE svg PUBLIC "-//W3C//DTD SVG 1.1//EN" "http://www.w3.org/Graphics/SVG/1.1/DTD/svg11.dtd"><svg t="1640617841631" class="icon" viewBox="0 0 1024 1024" version="1.1" xmlns="http://www.w3.org/2000/svg" p-id="5907" xmlns:xlink="http://www.w3.org/1999/xlink" width="64" height="64"><defs><style type="text/css"></style></defs><path d="M39.428571 454.285714h0.571429q9.142857-72 33.428571-138t65.714286-124 95.714286-100.571428T362.571429 24.571429 520.571429 0q132 0 236.571428 60.285714T925.142857 233.714286q59.428571 106.857143 59.428572 252.571428v107.428572H341.714286q0.571429 63.428571 30.571428 110T450.285714 773.714286t108.285715 32.571428 121.714285 1.714286 118.857143-26.571429T898.285714 733.142857v215.428572q-52.571429 31.428571-131.142857 52.571428t-178.571428 21.714286-180.571429-30.285714q-108-41.714286-178-142.285715T158.857143 637.714286q-1.714286-138.285714 63.428571-235.428572t185.714286-153.142857q-27.428571 34.285714-44.571429 71.714286T337.142857 412h362.857143q4.571429-44-4.571429-80t-26.857142-58-40.285715-38-46-23.428571-42.857143-11.714286-32-4.857143l-12.571428-0.571429q-77.142857 2.857143-148.285714 25.428572T218.857143 280.571429 118.285714 360.857143 39.428571 454.285714z" p-id="5908" fill="#c0c1c3"></path></svg>