<?xml version="1.0" standalone="no"?><!DOCTYPE svg PUBLIC "-//W3C//DTD SVG 1.1//EN" "http://www.w3.org/Graphics/SVG/1.1/DTD/svg11.dtd"><svg t="1640617648498" class="icon" viewBox="0 0 1069 1024" version="1.1" xmlns="http://www.w3.org/2000/svg" p-id="4020" xmlns:xlink="http://www.w3.org/1999/xlink" width="66.8125" height="64"><defs><style type="text/css"></style></defs><path d="M1022.528 334.144l-11.872 76.064c0 0-16.96-140.864-37.728-193.504-31.84-80.704-46.016-80.032-46.112-79.936 21.344 54.208 17.472 83.328 17.472 83.328s-37.792-103.008-137.696-135.776c-110.688-36.288-170.56-26.368-177.472-24.48-1.056 0-2.08 0-3.04 0 0.832 0.064 1.6 0.16 2.432 0.224-0.032 0.032-0.096 0.032-0.096 0.064 0.448 0.544 122.304 21.312 143.904 51.008 0 0-51.744 0-103.264 14.848-2.336 0.672 189.536 23.968 228.736 215.68 0 0-21.024-43.872-47.04-51.328 17.12 52.032 12.704 150.784-3.584 199.84-2.112 6.304-4.256-27.296-36.32-41.76 10.272 73.632-0.608 190.464-51.712 222.624-3.968 2.496 32.032-115.296 7.232-69.76-142.72 218.816-311.392 100.96-387.232 49.12 38.88 8.448 112.64-1.312 145.312-25.6 0.032-0.032 0.064-0.064 0.128-0.096 35.456-24.256 56.48-41.952 75.328-37.76 18.88 4.224 31.424-14.72 16.768-31.52-14.688-16.832-50.304-39.968-98.528-27.36-34.016 8.896-76.128 46.528-140.448 8.448-49.376-29.248-54.016-53.536-54.464-70.368 1.216-5.952 2.752-11.52 4.576-16.608 5.696-15.872 22.912-20.672 32.48-24.448 16.256 2.784 30.272 7.872 44.96 15.392 0.192-4.896 0.256-11.392-0.032-18.752 1.408-2.816 0.544-11.264-1.728-21.568-1.312-10.304-3.424-20.96-6.752-30.688 0 0 0.032 0 0.032 0 0.064-0.032 0.096-0.032 0.16-0.064 0.064-0.032 0.16-0.128 0.192-0.192 0-0.032 0.032-0.032 0.032-0.064 0.096-0.128 0.16-0.288 0.192-0.48 1.024-4.608 12.032-13.536 25.728-23.104 12.288-8.576 26.688-17.696 38.08-24.736 10.048-6.24 17.728-10.88 19.36-12.096 0.608-0.48 1.344-1.024 2.176-1.632 0.16-0.128 0.288-0.224 0.448-0.352 0.096-0.064 0.192-0.16 0.288-0.224 5.408-4.32 13.472-12.448 15.168-29.568 0-0.032 0-0.096 0-0.128 0.064-0.512 0.096-1.024 0.128-1.536 0.032-0.352 0.064-0.736 0.064-1.088 0-0.288 0.032-0.576 0.032-0.864 0.032-0.672 0.064-1.376 0.064-2.08 0-0.032 0-0.064 0-0.128 0.032-1.664 0-3.392-0.096-5.216-0.064-1.024-0.128-1.92-0.288-2.752 0-0.032-0.032-0.096-0.032-0.128-0.032-0.096-0.032-0.16-0.064-0.256-0.032-0.16-0.064-0.288-0.128-0.416 0-0.032 0-0.032-0.032-0.032-0.064-0.16-0.128-0.32-0.16-0.48 0 0 0 0 0-0.032-1.76-4.096-8.32-5.664-35.456-6.112-0.032 0-0.064 0-0.064 0l0 0c-11.072-0.192-25.536-0.192-44.512-0.128-33.248 0.128-51.616-32.512-57.504-45.12 8.032-44.448 31.264-76.128 69.44-97.632 0.736-0.416 0.576-0.736-0.288-0.992 7.456-4.512-90.24-0.128-135.2 57.024-39.872-9.92-74.656-9.248-104.608-2.208-5.76-0.16-12.928-0.896-21.44-2.656-19.936-18.048-48.448-51.392-49.984-91.2 0 0-0.096 0.064-0.256 0.192-0.032-0.384-0.064-0.768-0.064-1.152 0 0-60.704 46.656-51.616 173.888-0.032 2.048-0.064 4-0.128 5.888-16.416 22.304-24.576 41.024-25.184 45.152C26.784 326.368 12.032 370.976 0 438.688c0 0 8.416-26.656 25.28-56.864-12.416 38.016-22.176 97.152-16.448 185.856 0 0 1.504-19.68 6.88-48 4.192 55.008 22.528 122.912 68.864 202.784 88.96 153.312 225.664 230.752 376.8 242.624 26.848 2.208 54.048 2.272 81.44 0.192 2.528-0.192 5.024-0.352 7.552-0.576 30.976-2.176 62.144-6.848 93.248-14.368C1068.768 847.552 1022.528 334.144 1022.528 334.144z" p-id="4021" fill="#c0c1c3"></path></svg>