<?xml version="1.0" standalone="no"?><!DOCTYPE svg PUBLIC "-//W3C//DTD SVG 1.1//EN" "http://www.w3.org/Graphics/SVG/1.1/DTD/svg11.dtd"><svg t="1640839976140" class="icon" viewBox="0 0 1024 1024" version="1.1" xmlns="http://www.w3.org/2000/svg" p-id="12038" xmlns:xlink="http://www.w3.org/1999/xlink" width="64" height="64"><defs><style type="text/css"></style></defs><path d="M309.402151 0h52.851612c3.303226 0 5.505376 2.202151 5.505377 5.505376v204.8c0 3.303226 2.202151 5.505376 5.505376 5.505377H451.44086c3.303226 0 5.505376-2.202151 5.505377-5.505377V5.505376c0-3.303226 2.202151-5.505376 5.505376-5.505376h30.830107c3.303226 0 5.505376 2.202151 5.505377 5.505376v204.8c0 3.303226 2.202151 5.505376 5.505376 5.505377h78.176344c3.303226 0 5.505376-2.202151 5.505377-5.505377V5.505376c0-3.303226 2.202151-5.505376 5.505376-5.505376h29.729032c3.303226 0 5.505376 2.202151 5.505376 5.505376v204.8c0 3.303226 2.202151 5.505376 5.505377 5.505377h78.176344c3.303226 0 5.505376-2.202151 5.505376-5.505377V5.505376c0-3.303226 2.202151-5.505376 5.505377-5.505376h29.729032c3.303226 0 5.505376 2.202151 5.505376 5.505376v204.8c0 3.303226 2.202151 5.505376 5.505377 5.505377h78.176344c3.303226 0 5.505376-2.202151 5.505376-5.505377V5.505376c0-3.303226 2.202151-5.505376 5.505376-5.505376h84.782796c27.526882 0 50.649462 23.122581 50.649462 50.649462v888.567742c0 41.84086-34.133333 75.974194-75.974193 75.974194H116.713978c-41.84086 0-75.974194-34.133333-75.974193-75.974194C33.032258 713.496774 33.032258 488.877419 33.032258 264.258065c0-6.606452 2.202151-13.212903 7.707527-17.617205 78.176344-77.075269 155.251613-154.150538 233.427957-231.225806 9.909677-11.010753 22.021505-15.415054 35.234409-15.415054zM179.475269 380.972043c-3.303226 0-5.505376 2.202151-5.505377 5.505376v489.978495c0 3.303226 2.202151 5.505376 5.505377 5.505376h660.645161c3.303226 0 5.505376-2.202151 5.505376-5.505376V386.477419c0-3.303226-2.202151-5.505376-5.505376-5.505376h-660.645161z" fill="#2a8cf6" p-id="12039"></path></svg>