<?xml version="1.0" standalone="no"?><!DOCTYPE svg PUBLIC "-//W3C//DTD SVG 1.1//EN" "http://www.w3.org/Graphics/SVG/1.1/DTD/svg11.dtd"><svg t="1640786806682" class="icon" viewBox="0 0 1024 1024" version="1.1" xmlns="http://www.w3.org/2000/svg" p-id="6682" xmlns:xlink="http://www.w3.org/1999/xlink" width="64" height="64"><defs><style type="text/css"></style></defs><path d="M777.6 602.666667a133.333333 133.333333 0 1 1-67.370667 248.426666 354.602667 354.602667 0 0 1-214.272 58.026667 356.010667 356.010667 0 0 1-108.778666-22.976l-9.365334-3.754667 24.576-59.093333c30.506667 12.693333 63.146667 20.138667 96.917334 21.909333a290.901333 290.901333 0 0 0 164.138666-40.277333 133.333333 133.333333 0 0 1 114.133334-202.24zM320.96 254.485333l34.709333 53.76a291.776 291.776 0 0 0-133.546666 230.4 293.397333 293.397333 0 0 0 4.010666 66.282667 133.333333 133.333333 0 1 1-59.669333 27.690667 355.733333 355.733333 0 0 1-8.234667-97.322667 355.712 355.712 0 0 1 156.117334-276.437333l6.613333-4.373334zM777.6 666.666667a69.333333 69.333333 0 1 0 0 138.666666 69.333333 69.333333 0 0 0 0-138.666666z m-526.933333 0a69.333333 69.333333 0 1 0 0 138.666666 69.333333 69.333333 0 0 0 0-138.666666zM514.133333 96a133.333333 133.333333 0 0 1 133.162667 126.634667 356.437333 356.437333 0 0 1 222.570667 333.781333l-0.149334 7.509333-63.957333-2.005333a292.48 292.48 0 0 0-171.264-275.178667A133.333333 133.333333 0 1 1 514.133333 96z m0 64a69.333333 69.333333 0 1 0 0 138.666667 69.333333 69.333333 0 0 0 0-138.666667z" fill="#515151" p-id="6683"></path></svg>