<?xml version="1.0" standalone="no"?><!DOCTYPE svg PUBLIC "-//W3C//DTD SVG 1.1//EN" "http://www.w3.org/Graphics/SVG/1.1/DTD/svg11.dtd"><svg t="1640786711373" class="icon" viewBox="0 0 1024 1024" version="1.1" xmlns="http://www.w3.org/2000/svg" p-id="5848" xmlns:xlink="http://www.w3.org/1999/xlink" width="64" height="64"><defs><style type="text/css"></style></defs><path d="M704 914.474667c2.901333-2.304 5.504-4.736 7.808-7.253334l112.64-122.368c8.704-9.472 16.469333-23.552 21.76-38.186666H768c-35.541333 0-64 28.586667-64 64.213333v103.594667z m-42.666667 21.162666v-124.757333A106.581333 106.581333 0 0 1 768 704h85.333333V159.530667C853.333333 118.698667 822.784 85.333333 785.066667 85.333333H238.933333C201.344 85.333333 170.666667 118.570667 170.666667 159.573333v704.853334c0 41.045333 30.549333 74.24 68.266666 74.24h401.365334c6.528 0 13.738667-1.066667 21.034666-2.986667zM640.298667 981.333333H238.933333C176.810667 981.333333 128 928.256 128 864.426667V159.573333C128 95.786667 176.896 42.666667 238.933333 42.666667h546.133334C847.146667 42.666667 896 95.829333 896 159.530667v551.168c0 34.389333-16.853333 77.696-40.192 103.04l-112.64 122.410666c-24.021333 26.112-67.413333 45.184-102.826667 45.184z" p-id="5849"></path><path d="M320 256h256a21.333333 21.333333 0 1 0 0-42.666667h-256a21.333333 21.333333 0 0 0 0 42.666667zM320 426.666667h341.333333a21.333333 21.333333 0 1 0 0-42.666667h-341.333333a21.333333 21.333333 0 0 0 0 42.666667zM320 597.333333h341.333333a21.333333 21.333333 0 1 0 0-42.666666h-341.333333a21.333333 21.333333 0 1 0 0 42.666666z" p-id="5850"></path></svg>