<?xml version="1.0" standalone="no"?><!DOCTYPE svg PUBLIC "-//W3C//DTD SVG 1.1//EN" "http://www.w3.org/Graphics/SVG/1.1/DTD/svg11.dtd"><svg t="1640786240904" class="icon" viewBox="0 0 1024 1024" version="1.1" xmlns="http://www.w3.org/2000/svg" p-id="5006" xmlns:xlink="http://www.w3.org/1999/xlink" width="64" height="64"><defs><style type="text/css"></style></defs><path d="M995.126867 592.38l-360.08 360.08a53.333333 53.333333 0 0 1-71.333334 3.68l356.22-356.22a64 64 0 0 0 0-90.506667L495.8402 85.333333h45.573333a52.986667 52.986667 0 0 1 37.713334 15.62l416 416a53.4 53.4 0 0 1 0 75.426667z m-128 0l-360.08 360.08a53.333333 53.333333 0 0 1-75.426667 0l-416-416A52.986667 52.986667 0 0 1 0.0002 498.746667V138.666667a53.393333 53.393333 0 0 1 53.333333-53.333334h360.08a52.986667 52.986667 0 0 1 37.713334 15.62l416 416a53.4 53.4 0 0 1 0 75.426667zM341.333533 341.333333a85.333333 85.333333 0 1 0-85.333333 85.333334 85.426667 85.426667 0 0 0 85.333333-85.333334z" fill="#5C5C66" p-id="5007"></path></svg>