<?xml version="1.0" standalone="no"?><!DOCTYPE svg PUBLIC "-//W3C//DTD SVG 1.1//EN" "http://www.w3.org/Graphics/SVG/1.1/DTD/svg11.dtd"><svg t="1640839997888" class="icon" viewBox="0 0 1024 1024" version="1.1" xmlns="http://www.w3.org/2000/svg" p-id="12305" xmlns:xlink="http://www.w3.org/1999/xlink" width="64" height="64"><defs><style type="text/css"></style></defs><path d="M775.51104 162.7904H257.96608a38.272 38.272 0 0 0-38.28224 38.28224v628.20352a38.26176 38.26176 0 0 0 38.28224 38.28224h517.54496a38.26688 38.26688 0 0 0 38.28736-38.28224V201.06752a38.27712 38.27712 0 0 0-38.28736-38.27712zM409.4464 678.05696l-28.2624 27.96032-104.75008-105.61024 0.45056-0.4096-0.45056-0.4096L381.184 493.99296l28.2624 27.904-77.53728 78.09536 77.53728 78.06464z m102.8096 18.09408l-49.27488-15.36512 58.3168-187.25888 49.27488 15.32928-58.3168 187.29472z m244.864-95.744l-104.82688 105.5744-28.11392-27.96544 77.46048-78.01856-77.46048-78.01856 28.11392-27.94496 104.82688 105.55392-0.45056 0.4096 0.45056 0.4096z m0-249.33376H276.43392V299.50464h480.68608v51.56864z" fill="#2a8cf6" p-id="12306"></path></svg>