<?xml version="1.0" standalone="no"?><!DOCTYPE svg PUBLIC "-//W3C//DTD SVG 1.1//EN" "http://www.w3.org/Graphics/SVG/1.1/DTD/svg11.dtd"><svg t="1640840211411" class="icon" viewBox="0 0 1024 1024" version="1.1" xmlns="http://www.w3.org/2000/svg" p-id="13739" xmlns:xlink="http://www.w3.org/1999/xlink" width="64" height="64"><defs><style type="text/css"></style></defs><path d="M783.36 913.066667H240.64c-18.773333 0-34.133333-15.36-34.133333-34.133334s15.36-34.133333 34.133333-34.133333h542.72c18.773333 0 34.133333 15.36 34.133333 34.133333s-15.36 34.133333-34.133333 34.133334zM896 119.466667h-768C76.8 119.466667 34.133333 160.426667 34.133333 213.333333V665.6c0 51.2 42.666667 93.866667 93.866667 93.866667h768c51.2 0 93.866667-42.666667 93.866667-93.866667V213.333333C989.866667 160.426667 947.2 119.466667 896 119.466667zM382.293333 539.306667H375.466667V563.2c0 18.773333-15.36 34.133333-34.133334 34.133333s-34.133333-15.36-34.133333-34.133333v-25.6h-6.826667c-18.773333 0-34.133333-15.36-34.133333-34.133333s15.36-34.133333 34.133333-34.133334h6.826667v-157.013333c0-18.773333 15.36-34.133333 34.133333-34.133333s34.133333 15.36 34.133334 34.133333v157.013333h6.826666c18.773333 0 34.133333 15.36 34.133334 34.133334s-15.36 35.84-34.133334 35.84z m170.666667-133.12H546.133333V563.2c0 18.773333-15.36 34.133333-34.133333 34.133333s-34.133333-15.36-34.133333-34.133333v-157.013333h-6.826667c-18.773333 0-34.133333-15.36-34.133333-34.133334s15.36-34.133333 34.133333-34.133333h6.826667v-25.6c0-18.773333 15.36-34.133333 34.133333-34.133333s34.133333 15.36 34.133333 34.133333v25.6h6.826667c18.773333 0 34.133333 15.36 34.133333 34.133333s-15.36 34.133333-34.133333 34.133334z m172.373333 133.12c-1.706667 0-1.706667 0 0 0H716.8v25.6c0 18.773333-15.36 34.133333-34.133333 34.133333s-34.133333-15.36-34.133334-34.133333v-25.6h-6.826666c-18.773333 0-34.133333-15.36-34.133334-34.133334s17.066667-34.133333 34.133334-34.133333h6.826666l3.413334-157.013333c0-18.773333 15.36-34.133333 34.133333-34.133334s34.133333 15.36 34.133333 34.133334l-3.413333 157.013333h6.826667c18.773333 0 34.133333 15.36 34.133333 34.133333 0 20.48-15.36 34.133333-32.426667 34.133334z" fill="#2a8cf6" p-id="13740"></path></svg>