<?xml version="1.0" standalone="no"?><!DOCTYPE svg PUBLIC "-//W3C//DTD SVG 1.1//EN" "http://www.w3.org/Graphics/SVG/1.1/DTD/svg11.dtd"><svg t="1640840228456" class="icon" viewBox="0 0 1024 1024" version="1.1" xmlns="http://www.w3.org/2000/svg" p-id="14260" xmlns:xlink="http://www.w3.org/1999/xlink" width="64" height="64"><defs><style type="text/css"></style></defs><path d="M661.333333 691.2v106.666667l74.666667-42.666667c25.6-14.933333 42.666667-42.666667 42.666667-74.666667v-34.133333l-21.333334-12.8-96 57.6zM469.333333 292.266667l-53.333333 29.866666v32l96 55.466667 96-55.466667v-32L554.666667 292.266667c-25.6-17.066667-59.733333-17.066667-85.333334 0zM288 755.2l74.666667 42.666667v-106.666667l-96-55.466667-21.333334 12.8V682.666667c0 29.866667 17.066667 57.6 42.666667 72.533333z" p-id="14261" fill="#2a8cf6"></path><path d="M597.333333 678.4c0-14.933333 8.533333-29.866667 21.333334-36.266667l117.333333-68.266666c6.4-4.266667 14.933333-6.4 21.333333-6.4s14.933333 2.133333 21.333334 6.4V469.333333c0-29.866667-17.066667-57.6-42.666667-74.666666l-64-36.266667v6.4c0 14.933333-8.533333 29.866667-21.333333 36.266667L533.333333 471.466667c-6.4 4.266667-14.933333 6.4-21.333333 6.4s-14.933333-2.133333-21.333333-6.4l-117.333334-68.266667c-12.8-8.533333-21.333333-21.333333-21.333333-36.266667v-6.4l-64 36.266667c-25.6 14.933333-42.666667 42.666667-42.666667 74.666667V576c6.4-4.266667 14.933333-6.4 21.333334-6.4s14.933333 2.133333 21.333333 6.4l117.333333 68.266667c12.8 8.533333 21.333333 21.333333 21.333334 36.266666v136.533334c0 6.4-2.133333 12.8-4.266667 19.2l46.933333 27.733333c25.6 14.933333 59.733333 14.933333 85.333334 0l46.933333-27.733333c-2.133333-6.4-4.266667-12.8-4.266667-19.2v-138.666667z" p-id="14262" fill="#2a8cf6"></path><path d="M896 642.133333l-117.333333-68.266666v74.666666l74.666666 42.666667v110.933333l-96 55.466667-96-55.466667v-4.266666L601.6 832c4.266667 6.4 8.533333 14.933333 17.066667 19.2l117.333333 68.266667c6.4 4.266667 14.933333 6.4 21.333333 6.4s14.933333-2.133333 21.333334-6.4l117.333333-68.266667c12.8-8.533333 21.333333-21.333333 21.333333-36.266667v-136.533333c0-14.933333-8.533333-29.866667-21.333333-36.266667zM416 243.2L512 187.733333l96 55.466667v78.933333l64 36.266667v-128c0-14.933333-8.533333-29.866667-21.333333-36.266667L533.333333 125.866667c-6.4-4.266667-14.933333-6.4-21.333333-6.4s-14.933333 2.133333-21.333333 6.4l-117.333334 68.266666c-12.8 8.533333-21.333333 21.333333-21.333333 36.266667v128l64-36.266667v-78.933333zM362.666667 802.133333l-96 55.466667L170.666667 802.133333v-110.933333l74.666666-42.666667v-74.666666L128 642.133333c-12.8 8.533333-21.333333 21.333333-21.333333 36.266667v136.533333c0 14.933333 8.533333 29.866667 21.333333 36.266667l117.333333 68.266667c6.4 4.266667 14.933333 6.4 21.333334 6.4s14.933333-2.133333 21.333333-6.4l117.333333-68.266667c6.4-4.266667 12.8-10.666667 17.066667-19.2L362.666667 797.866667v4.266666z" p-id="14263" fill="#2a8cf6"></path></svg>