<?xml version="1.0" standalone="no"?><!DOCTYPE svg PUBLIC "-//W3C//DTD SVG 1.1//EN" "http://www.w3.org/Graphics/SVG/1.1/DTD/svg11.dtd"><svg t="1610701626292" class="icon" viewBox="0 0 1024 1024" version="1.1" xmlns="http://www.w3.org/2000/svg" p-id="1619" xmlns:xlink="http://www.w3.org/1999/xlink" width="128" height="128"><defs><style type="text/css"></style></defs><path d="M922.317764 0H101.64468999A100.312307 100.312307 0 0 0 1.634036 100.01065401V923.98934599a100.312307 100.312307 0 0 0 100.01065399 100.01065401h820.67307401a100.299739 100.299739 0 0 0 99.998085-100.01065401V100.06093001A100.299739 100.299739 0 0 0 922.317764 0zM427.933063 402.04107001l-177.321894 103.06489399 177.321894 97.094672v81.257871L179.684925 534.83138801v-57.47753201l248.248138-160.52985701z m70.93881195 364.66119198h-53.97081195l78.64354199-509.303973h53.958243z m345.39308503-231.84573598L596.004253 683.44593801v-81.25787102l177.32189397-97.09467199-177.32189397-103.06489401v-85.21707098l248.26070701 160.54242599z" p-id="1620" fill="#0066ff"></path></svg>